<svg xmlns="http://www.w3.org/2000/svg" xmlns:xlink="http://www.w3.org/1999/xlink" width="589" height="589" viewBox="0 0 589 589"><defs><style>.a{fill:#fff;stroke:#707070;}.b{fill:#292662;stroke:#fff;stroke-width:0.7px;}.c{stroke:none;}.d{fill:none;}.e{filter:url(#a);}</style><filter id="a" x="0" y="0" width="589" height="589" filterUnits="userSpaceOnUse"><feOffset dy="3" input="SourceAlpha"/><feGaussianBlur stdDeviation="49.5" result="b"/><feFlood flood-opacity="0.161"/><feComposite operator="in" in2="b"/><feComposite in="SourceGraphic"/></filter></defs><g transform="translate(-1202.5 -3256.5)"><g class="e" transform="matrix(1, 0, 0, 1, 1202.5, 3256.5)"><g class="a" transform="translate(148.5 145.5)"><circle class="c" cx="146" cy="146" r="146"/><circle class="d" cx="146" cy="146" r="145.5"/></g></g><g transform="translate(2130.116 3109.815)"><path class="b" d="M-661.539,425.584c-2.185-.577-4.229-1.042-6.227-1.659a33.884,33.884,0,0,1-14.169-8.964c-1.134-1.15-2.312-2.256-3.415-3.433-1.005-1.073-1.073-2.1-.1-3.106,4.2-4.374,8.454-8.666,14.146-11.178a34.022,34.022,0,0,1,25.287-1.274c1.12.373,1.61.184,2.176-.823,2.677-4.768,5.457-9.478,8.147-14.239a4.317,4.317,0,0,0,.487-2.031q.05-16.211.034-32.423a8.386,8.386,0,0,1,.047-1.342,2,2,0,0,1,2.049-1.927,1.87,1.87,0,0,1,2.024,1.912c.013,1.132.607,1.514,1.464,1.919,7.495,3.544,14.973,7.122,22.466,10.669,1.024.484,1.969,1.026,1.954,2.3s-1.017,1.785-2.019,2.261c-7.568,3.6-15.126,7.219-22.707,10.791a1.767,1.767,0,0,0-1.113,1.713,14.631,14.631,0,0,0,2.543,9.717c3.838,6.107,7.354,12.416,11,18.645,1.135,1.942,1.041,3.108-.279,3.836-1.217.671-2.185.161-3.324-1.779q-5.783-9.859-11.559-19.722c-.089-.152-.2-.291-.461-.658l-7.571,13.1c2.566,2.028,5.041,3.869,7.378,5.87,1.63,1.4,3.094,2.99,4.592,4.536a2.025,2.025,0,0,1,.177,3.013c-4.2,4.433-8.5,8.761-14.236,11.273a32.3,32.3,0,0,1-12.33,2.974,2.53,2.53,0,0,0-2.437,1.45c-3.172,5.621-6.425,11.2-9.645,16.789-.191.332-.345.686-.593,1.186.6.03,1.034.071,1.465.071,12.6,0,25.2-.013,37.806.03a2.293,2.293,0,0,0,2.3-1.349q9.829-17.148,19.745-34.248c.157-.272.319-.541.484-.808,1.153-1.865,2.878-1.892,3.983-.014,2.045,3.476,4.05,6.977,6.067,10.47q7.531,13.042,15.058,26.086c.518.9,1.117,1.769.489,2.87-.651,1.139-1.728,1.1-2.825,1.1q-43.658-.009-87.317,0c-1.05,0-2.1.045-2.726-1.028-.652-1.12-.079-2.061.467-3.008q5.343-9.259,10.676-18.523C-661.907,426.32-661.756,426-661.539,425.584Zm57.581-12.088-18.115,31.412h36.25Zm-41.461-3.612a11.579,11.579,0,0,0-11.631-11.6,11.624,11.624,0,0,0-11.6,11.641,11.589,11.589,0,0,0,11.786,11.583A11.547,11.547,0,0,0-645.419,409.884Zm14.488-40.943,18.855-9-18.855-8.968Zm-50.079,41.029c3.078,3.218,6.177,6.289,10.315,8.05a16.9,16.9,0,0,1-2.115-8.162,16.561,16.561,0,0,1,2.343-8.287A31.869,31.869,0,0,0-681.01,409.969Zm47.941.019c-2.247-3.088-7.744-7.464-10.526-8.294a15.133,15.133,0,0,1,2.339,8.267,17.32,17.32,0,0,1-2.333,8.369C-639.228,416.2-636.105,413.213-633.069,409.988Z"/><path class="b" d="M-621.818,427.136c0,1.03.048,2.062-.012,3.089a2,2,0,0,1-1.975,2.124,1.874,1.874,0,0,1-2.071-1.859c-.088-2.274-.071-4.559.038-6.833a1.765,1.765,0,0,1,2.032-1.707,1.855,1.855,0,0,1,1.95,1.832c.088,1.112.019,2.236.019,3.354Z" transform="translate(-33.152 -43.366)"/><path class="b" d="M-606.237,441.938c-.471-.348-1.255-.642-1.5-1.179a2.4,2.4,0,0,1,.035-2.079,61.1,61.1,0,0,1,4.986-5.049,1.8,1.8,0,0,1,2.563.19,1.739,1.739,0,0,1,.258,2.54c-1.594,1.748-3.3,3.4-5,5.046C-605.151,441.66-605.616,441.7-606.237,441.938Z" transform="translate(-43.052 -49.549)"/><path class="b" d="M-644.771,440.02c-.414.511-.747,1.307-1.286,1.487a2.675,2.675,0,0,1-2.209-.2,57.877,57.877,0,0,1-4.756-4.707,1.94,1.94,0,0,1,.156-2.783,1.917,1.917,0,0,1,2.691-.062c1.646,1.5,3.2,3.111,4.743,4.725A5.564,5.564,0,0,1-644.771,440.02Z" transform="translate(-17.953 -49.58)"/><path class="b" d="M-526.577,495.4a2.093,2.093,0,0,1-2,2.093,2.03,2.03,0,0,1-2.108-1.959,2.052,2.052,0,0,1,1.973-2.1A2.111,2.111,0,0,1-526.577,495.4Z" transform="translate(-85.596 -82.723)"/><path class="b" d="M-622.775,484.047a6.166,6.166,0,0,1-6.257,6.188,6.255,6.255,0,0,1-6.144-6.2,6.242,6.242,0,0,1,6.146-6.2A6.218,6.218,0,0,1-622.775,484.047Zm-4.176-.052a2,2,0,0,0-2.09-1.97,2,2,0,0,0-1.928,2,2,2,0,0,0,2.025,2.035A2,2,0,0,0-626.951,484Z" transform="translate(-28.062 -74.137)"/></g></g></svg>