<svg xmlns="http://www.w3.org/2000/svg" width="275" height="275" viewBox="0 0 275 275"><defs><style>.a{fill:#fff;stroke:#707070;}.b{fill:#c9203e;}.c{stroke:none;}.d{fill:none;}</style></defs><g transform="translate(-419 -395)"><g class="a" transform="translate(419 395)"><circle class="c" cx="137.5" cy="137.5" r="137.5"/><circle class="d" cx="137.5" cy="137.5" r="137"/></g><g transform="translate(477.81 454.012)"><path class="b" d="M1.612,179.03l41.741,19.592a2.3,2.3,0,0,0,1.347.188l15.236-2.488a27.327,27.327,0,0,1,23.806,7.752l12.751,12.908a3.847,3.847,0,0,1-.363,5.732,3.871,3.871,0,0,1-4.6.112L79.1,214.018a4.544,4.544,0,0,0-5.716.345L64.3,222.607a2.3,2.3,0,1,0,3.089,3.4l9.055-8.242,12.433,8.808a8.444,8.444,0,0,0,10.888-12.824l-10.11-10.234a28.942,28.942,0,0,1,16.257.675l5.388,1.831a5.633,5.633,0,0,0,4.565-.422l.032-.018,39.722-23.165a2.3,2.3,0,1,0-2.315-3.971L113.6,201.6a1.031,1.031,0,0,1-.823.071l-5.388-1.831a33.547,33.547,0,0,0-21.448-.027A31.935,31.935,0,0,0,59.2,191.786L44.662,194.16l-41.1-19.29a2.3,2.3,0,0,0-1.953,4.161Z" transform="translate(0 -121.134)"/><path class="b" d="M156.857,318.844a2.3,2.3,0,0,0-3.074-1.056l-20.22,9.877a2.3,2.3,0,0,0-.866.735l-1.627,2.294a23.141,23.141,0,0,1-7.409,6.711,8.085,8.085,0,0,0-.778-1.06l-4.016-4.622a8.1,8.1,0,0,0-11.411-.8l-.331.287a8.062,8.062,0,0,0-2.764,5.643l-.106-.01a8.037,8.037,0,0,0-5.871,1.963l-.331.288a8.063,8.063,0,0,0-2.764,5.646,8.061,8.061,0,0,0-5.976,1.949l-.332.288a8.064,8.064,0,0,0-2.764,5.646,8.062,8.062,0,0,0-5.977,1.95l-.331.287a8.088,8.088,0,0,0-.8,11.41l1.941,2.234-.775.685-.042.038a4.022,4.022,0,0,1-5.435-.07,3.707,3.707,0,0,1-.085-4.891A2.3,2.3,0,0,0,71.4,361.1l-.247.23a4.022,4.022,0,0,1-5.435-.07,3.7,3.7,0,0,1-.057-4.928,2.3,2.3,0,0,0-3.3-3.192l-.069.064a4.022,4.022,0,0,1-5.435-.07,3.705,3.705,0,0,1-.081-4.9,2.3,2.3,0,0,0-2.787-3.541,3.708,3.708,0,0,1-4.468-.869,3.819,3.819,0,0,1,.364-5.247l2.471-2.189,7.709-7a2.3,2.3,0,1,0-3.089-3.4l-7.688,6.977-2.474,2.191-.041.038a8.49,8.49,0,0,0-2.474,4.251l-.017-.01a38,38,0,0,1-10.924-9.287l-1.31-1.63a2.3,2.3,0,0,0-.781-.625L3.6,314.362a2.3,2.3,0,0,0-2.02,4.129L28.785,331.8l.989,1.231a42.582,42.582,0,0,0,12.239,10.406l2.863,1.623a7.984,7.984,0,0,0,1.183,1.793,8.3,8.3,0,0,0,5.293,2.783,8.3,8.3,0,0,0,2.164,6.657l.058.06a8.537,8.537,0,0,0,6.571,2.454,8.29,8.29,0,0,0,2.231,5.611l.058.06a8.551,8.551,0,0,0,6.808,2.437,8.285,8.285,0,0,0,2.219,5.4l.058.06a8.608,8.608,0,0,0,11.822.235l.82-.725a8.027,8.027,0,0,0,4.5,1.767q.29.02.578.02a8.027,8.027,0,0,0,5.293-1.983l.332-.288a8.063,8.063,0,0,0,2.764-5.647c.225.019.45.031.677.031a8.054,8.054,0,0,0,5.3-1.979l.331-.287a8.063,8.063,0,0,0,2.764-5.647c.225.019.45.031.677.031a8.054,8.054,0,0,0,5.3-1.98l.331-.287a8.036,8.036,0,0,0,2.763-5.54c0-.036,0-.071,0-.107.224.018.448.03.673.03a8.053,8.053,0,0,0,5.3-1.979l.331-.288a8.066,8.066,0,0,0,2.77-5.772,27.74,27.74,0,0,0,9.967-8.631l1.288-1.815,19.693-9.62A2.3,2.3,0,0,0,156.857,318.844Zm-65,49.092-.332.288a3.491,3.491,0,0,1-4.926-.345l-4.016-4.622a3.491,3.491,0,0,1,.346-4.926l.331-.287a3.5,3.5,0,0,1,4.926.345L92.2,363.01a3.5,3.5,0,0,1-.345,4.925Zm9.071-7.883-.331.287a3.5,3.5,0,0,1-4.926-.345l-4.016-4.622A3.5,3.5,0,0,1,92,350.447l.332-.288a3.5,3.5,0,0,1,4.926.345l4.016,4.622A3.5,3.5,0,0,1,100.924,360.052Zm10.265-10.275A3.47,3.47,0,0,1,110,352.169l-.331.287a3.5,3.5,0,0,1-4.926-.345l-4.016-4.622a3.5,3.5,0,0,1,.345-4.926l.331-.288a3.467,3.467,0,0,1,2.285-.856c.083,0,.166,0,.249.009a3.469,3.469,0,0,1,2.391,1.193l4.016,4.622a3.47,3.47,0,0,1,.848,2.535Zm7.879-5.492-.331.288a3.5,3.5,0,0,1-4.926-.345l-4.016-4.622a3.491,3.491,0,0,1,.346-4.926l.331-.287a3.5,3.5,0,0,1,4.926.345l4.016,4.622a3.5,3.5,0,0,1-.345,4.926Z" transform="translate(0 -217.872)"/><path class="b" d="M176.093,64.311l6.361,2.333a5.267,5.267,0,0,0,3.624,0l6.361-2.333a35.664,35.664,0,0,0,22.688-26.477,2.3,2.3,0,1,0-4.507-.9,31.252,31.252,0,0,1-19.764,23.063l-6.361,2.333a.667.667,0,0,1-.459,0l-6.361-2.333a31.173,31.173,0,0,1-20.37-29.166V10.854a1.138,1.138,0,0,1,.919-1.115l26.182-5.1,25.9,5.094a1.139,1.139,0,0,1,.917,1.115V27.588a2.3,2.3,0,0,0,4.6,0V10.849A5.745,5.745,0,0,0,211.2,5.224L184.853.043a2.3,2.3,0,0,0-.883,0L157.346,5.227a5.743,5.743,0,0,0-4.637,5.627V30.83a35.786,35.786,0,0,0,23.383,33.481Z" transform="translate(-105.714 0)"/><path class="b" d="M205.651,30.612a2.294,2.294,0,0,0-.883,0l-20.2,3.934a2.3,2.3,0,0,0-1.859,2.256v15.23a26.561,26.561,0,0,0,17.356,24.851l4.216,1.546a2.3,2.3,0,0,0,1.582,0l4.217-1.546a26.561,26.561,0,0,0,17.356-24.851V36.787a2.3,2.3,0,0,0-1.855-2.255ZM222.84,52.031A21.949,21.949,0,0,1,208.5,72.566l-3.425,1.256-3.425-1.256a21.949,21.949,0,0,1-14.342-20.535V38.695l17.9-3.486,17.634,3.468Z" transform="translate(-126.521 -21.202)"/><path class="b" d="M227.68,87.947a2.3,2.3,0,1,0-3.149,3.349l3.71,3.488a2.3,2.3,0,0,0,1.574.624c.049,0,.1,0,.147,0a2.3,2.3,0,0,0,1.628-.833l12.015-14.6a2.3,2.3,0,1,0-3.549-2.921L229.6,89.753Z" transform="translate(-155.026 -52.859)"/></g></g></svg>