<svg xmlns="http://www.w3.org/2000/svg" width="13.775" height="9.209" viewBox="0 0 13.775 9.209"><defs><style>.a{fill:#fff;}</style></defs><g transform="translate(-1629.177 -5439.126)"><path class="a" d="M8.109,198.313H11.1v9H8.109Zm0,0" transform="translate(1621.067 5241.025)"/><path class="a" d="M226.9,188.625a3.747,3.747,0,0,0-2.7,1.516v-1.3h-2.991v9h2.991v-5.025a2.05,2.05,0,0,1,.1-.73,1.637,1.637,0,0,1,1.534-1.094c1.082,0,1.515.825,1.515,2.035v4.814h2.991v-5.159C230.344,189.911,228.869,188.625,226.9,188.625Zm0,0" transform="translate(1412.607 5250.501)"/></g></svg>