<svg xmlns="http://www.w3.org/2000/svg" xmlns:xlink="http://www.w3.org/1999/xlink" width="589" height="589" viewBox="0 0 589 589"><defs><style>.a{fill:#fff;stroke:#707070;}.b{fill:#292662;}.c{stroke:none;}.d{fill:none;}.e{filter:url(#a);}</style><filter id="a" x="0" y="0" width="589" height="589" filterUnits="userSpaceOnUse"><feOffset dy="3" input="SourceAlpha"/><feGaussianBlur stdDeviation="49.5" result="b"/><feFlood flood-opacity="0.161"/><feComposite operator="in" in2="b"/><feComposite in="SourceGraphic"/></filter></defs><g transform="translate(-664.5 -3256.5)"><g class="e" transform="matrix(1, 0, 0, 1, 664.5, 3256.5)"><g class="a" transform="translate(148.5 145.5)"><circle class="c" cx="146" cy="146" r="146"/><circle class="d" cx="146" cy="146" r="145.5"/></g></g><g transform="translate(905.755 3453)"><path class="b" d="M203.261,447.768l-.319,1.557.307-1.559a1.589,1.589,0,1,0-.614,3.118l.029.006a1.619,1.619,0,0,0,.3.029,1.59,1.59,0,0,0,.3-3.151Zm0,0" transform="translate(-158.688 -352.863)"/><path class="b" d="M262.379,450.264l.158,1.581-.163-1.58a1.589,1.589,0,0,0,.161,3.17c.055,0,.11,0,.165-.008l.044,0a1.589,1.589,0,0,0-.364-3.158Zm0,0" transform="translate(-205.655 -354.849)"/><path class="b" d="M232.774,451.233h-.023a1.58,1.58,0,0,0-1.647,1.517,1.6,1.6,0,0,0,1.526,1.659c.025,0,.049,0,.074,0a1.589,1.589,0,0,0,.07-3.177Zm0,0" transform="translate(-182.133 -355.617)"/><path class="b" d="M174.712,439.891l-.02-.007a1.58,1.58,0,0,0-2.023.962,1.594,1.594,0,1,0,2.043-.954Zm0,0" transform="translate(-136.008 -346.601)"/><path class="b" d="M291.55,444.855l.392,1.54-.4-1.539a1.589,1.589,0,1,0,.793,3.077l.042-.011a1.589,1.589,0,0,0-.83-3.068Zm0,0" transform="translate(-228.828 -350.551)"/><path class="b" d="M319.55,435.088l.63,1.458-.635-1.457A1.589,1.589,0,1,0,320.814,438l.039-.017a1.589,1.589,0,0,0-1.3-2.9Zm0,0" transform="translate(-251.083 -342.788)"/><path class="b" d="M148.073,81.869a1.59,1.59,0,1,0-.742-2.993l-.019.01a1.587,1.587,0,0,0,.761,2.983Zm0,0" transform="translate(-115.44 -62.015)"/><path class="b" d="M64.088,166.25a1.589,1.589,0,0,0,2.146-.67l.028-.055a1.59,1.59,0,1,0-2.174.725Zm0,0" transform="translate(-49.837 -128.645)"/><path class="b" d="M52.677,194.1a1.587,1.587,0,0,0,2.015-1l.021-.063a1.59,1.59,0,1,0-2.035,1.059Zm0,0" transform="translate(-40.663 -150.514)"/><path class="b" d="M79.617,140.486a1.588,1.588,0,0,0,2.22-.35l.021-.028a1.589,1.589,0,0,0-2.586-1.848l1.28.942-1.285-.935a1.589,1.589,0,0,0,.35,2.22Zm0,0" transform="translate(-62.231 -108.441)"/><path class="b" d="M122.634,98.015a1.6,1.6,0,1,0-.92-2.888l-.04.029a1.591,1.591,0,0,0,.96,2.859Zm0,0" transform="translate(-95.396 -74.728)"/><path class="b" d="M49.713,311.7a1.589,1.589,0,1,0-.021-.07l.021.07Zm0,0" transform="translate(-39.119 -244.014)"/><path class="b" d="M99.979,117.8a1.594,1.594,0,1,0-1.11-2.725l-.026.026a1.588,1.588,0,0,0,1.136,2.7Zm0,0" transform="translate(-77.542 -90.322)"/><path class="b" d="M46.515,281.578a1.589,1.589,0,0,0-3.154.393l.009.064a1.589,1.589,0,0,0,3.145-.457Zm0,0" transform="translate(-34.164 -220.822)"/><path class="b" d="M43.133,253.347h.048a1.589,1.589,0,0,0,1.588-1.543l0-.068a1.59,1.59,0,1,0-1.637,1.61Zm0,0" transform="translate(-32.778 -197.143)"/><path class="b" d="M45.642,223.359a1.64,1.64,0,0,0,.282.025,1.591,1.591,0,0,0,1.563-1.309c0-.023.007-.046.011-.07a1.59,1.59,0,1,0-1.856,1.354Zm0,0" transform="translate(-34.939 -173.528)"/><path class="b" d="M403.208,144.264a1.589,1.589,0,0,0,2.616-1.8l-1.321.884,1.316-.891a1.589,1.589,0,1,0-2.631,1.784Zm0,0" transform="translate(-317.539 -111.717)"/><path class="b" d="M437.352,229.033a1.589,1.589,0,0,0-1.4,1.757l.008.069a1.59,1.59,0,0,0,1.572,1.364,1.625,1.625,0,0,0,.227-.016,1.6,1.6,0,0,0-.406-3.174Zm0,0" transform="translate(-343.568 -180.494)"/><path class="b" d="M429.7,200.324l.007.021a1.589,1.589,0,0,0,1.524,1.141,1.566,1.566,0,0,0,.449-.065,1.589,1.589,0,0,0,1.077-1.973l-.007-.021a1.589,1.589,0,0,0-3.049.9Zm0,0" transform="translate(-338.601 -156.27)"/><path class="b" d="M418.706,171.268a1.6,1.6,0,0,0,1.434.892,1.588,1.588,0,0,0,1.423-2.285l-1.44.671,1.439-.675a1.589,1.589,0,0,0-2.878,1.349Zm0,0" transform="translate(-329.848 -133.155)"/><path class="b" d="M383.664,120.068a1.6,1.6,0,1,0-.048-.05Zm0,0" transform="translate(-301.998 -92.484)"/><path class="b" d="M438.953,260.385a1.6,1.6,0,0,0-.136,3.195l.09,0a1.59,1.59,0,0,0,1.585-1.5l0-.065A1.587,1.587,0,0,0,438.953,260.385Zm0,0" transform="translate(-344.652 -205.21)"/><path class="b" d="M334.379,82.253l.038.021a1.583,1.583,0,0,0,2.14-.653,1.594,1.594,0,0,0-.646-2.151l-.769,1.391.764-1.394a1.589,1.589,0,1,0-1.528,2.787Zm0,0" transform="translate(-262.875 -62.473)"/><path class="b" d="M360.5,99.2l.025.019a1.589,1.589,0,0,0,1.921-2.533l-.011-.007A1.589,1.589,0,1,0,360.5,99.2Zm0,0" transform="translate(-283.625 -75.93)"/><path class="b" d="M107.509,79.234l-7.46-7.473a3.356,3.356,0,0,0-4.752,0l-.173.173-.49-.49a6.414,6.414,0,0,1-1.391-2.082,1.549,1.549,0,0,0-.113-.295,6.427,6.427,0,0,1-.37-2.159V64.794a1.6,1.6,0,1,0-.01-2.825,8.959,8.959,0,0,0-2.626-5.976l-7.238-7.25a8.587,8.587,0,0,0-10.98-.986l-.768-.772V28.809A9.024,9.024,0,0,0,68.9,22.858a6.413,6.413,0,0,1-1.593-4.233V17.293h.109a3.364,3.364,0,0,0,3.36-3.361V3.361A3.364,3.364,0,0,0,67.414,0H37.728a3.364,3.364,0,0,0-3.36,3.361V13.932a3.364,3.364,0,0,0,3.36,3.361h.245v.7A6.376,6.376,0,0,1,36.1,22.525l-3.2,3.21a8.966,8.966,0,0,0-2.636,6.376V42.363a8.569,8.569,0,0,0,.923,3.874A8.534,8.534,0,0,0,25.6,48.743l-7.238,7.25a8.967,8.967,0,0,0-2.636,6.376v4.539a6.375,6.375,0,0,1-1.875,4.535l-.484.485-.006,0-.172-.173a3.356,3.356,0,0,0-4.752,0L.981,79.234a3.369,3.369,0,0,0,0,4.753l2.555,2.558A1.589,1.589,0,1,0,5.785,84.3L3.23,81.74a.184.184,0,0,1,0-.261l7.461-7.473a.178.178,0,0,1,.252,0l1.3,1.3h0L29.952,93.047l1.984,1.988a.184.184,0,0,1,0,.261l-7.46,7.473a.178.178,0,0,1-.253,0L10.284,88.806a1.589,1.589,0,1,0-2.25,2.246l13.939,13.963a3.356,3.356,0,0,0,4.752,0l7.46-7.473a3.368,3.368,0,0,0,0-4.752l-.081-.081.941-.943A6.386,6.386,0,0,1,39.157,89.9a8.993,8.993,0,0,0,5.787-2.624L51.8,80.409a5.441,5.441,0,0,0,3.933-4.145,5.419,5.419,0,0,0,7.743-4.9V67.587a5.416,5.416,0,0,0,7.662-4.94V51.491L76.024,56.4a1.589,1.589,0,0,0,2.253-2.242l-4.076-4.1a5.413,5.413,0,0,1,6.434.924l7.238,7.249a5.81,5.81,0,0,1,1.708,4.13v4.539a9.535,9.535,0,0,0,2.8,6.781l.493.494-2.305,2.309L76.63,90.458l-.777-.779-.024-.023-.137-.137a9.569,9.569,0,0,0-6.154-2.789,5.828,5.828,0,0,1-3.748-1.7l-5.222-5.194a1.589,1.589,0,1,0-2.241,2.253l5.219,5.19A8.993,8.993,0,0,0,69.333,89.9a6.389,6.389,0,0,1,4.11,1.863l.077.077a1.531,1.531,0,0,0,.132.132l.733.733-.081.082a3.368,3.368,0,0,0,0,4.752l7.46,7.473a3.357,3.357,0,0,0,4.753,0l20.992-21.029a3.368,3.368,0,0,0,0-4.752Zm-13.685-15.8-.03,0-.29-.059Zm-51.13,21.6a5.817,5.817,0,0,1-3.742,1.7A9.569,9.569,0,0,0,32.8,89.519l-.938.939-.844-.846-.032-.032-15.371-15.4.493-.494a9.535,9.535,0,0,0,2.8-6.781V62.369a5.806,5.806,0,0,1,1.708-4.13l7.238-7.249a5.412,5.412,0,0,1,6.442-.919L30.214,54.16a1.589,1.589,0,0,0,2.25,2.246l4.876-4.885v19.84a5.419,5.419,0,0,0,7.773,4.889,5.446,5.446,0,0,0,2.693,3.659ZM67.958,62.648a2.242,2.242,0,1,1-4.485,0V44.921a1.589,1.589,0,1,0-3.178,0v26.44a2.241,2.241,0,0,1-4.451.372V44.9a1.606,1.606,0,0,0-3.212.018V71.36a5.449,5.449,0,0,0,.033.6v3.2a2.242,2.242,0,1,1-4.484,0V44.884a1.59,1.59,0,0,0-3.179,0V71.36a2.242,2.242,0,1,1-4.484,0V41.8a1.589,1.589,0,1,0-3.178,0v5.468a1.56,1.56,0,0,0-.382.183,5.438,5.438,0,0,1-3.522-5.086V32.11a5.81,5.81,0,0,1,1.708-4.13l3.2-3.21a9.532,9.532,0,0,0,2.8-6.781v-.7h3.195a1.589,1.589,0,1,0,0-3.178H37.728a.182.182,0,0,1-.181-.182V3.361a.182.182,0,0,1,.181-.182H67.413a.182.182,0,0,1,.182.182V13.932a.182.182,0,0,1-.182.182H51.808a1.589,1.589,0,0,0,0,3.178H64.127v1.332a9.6,9.6,0,0,0,2.381,6.33,5.843,5.843,0,0,1,1.451,3.855Zm37.3,19.092L84.266,102.769a.17.17,0,0,1-.127.053.173.173,0,0,1-.127-.053L76.553,95.3a.184.184,0,0,1,0-.261l1.2-1.2h0L89.941,81.623l7.6-7.617a.177.177,0,0,1,.252,0l7.461,7.473a.184.184,0,0,1,0,.261Zm0,0" transform="translate(0)"/><path class="b" d="M195.508,32.8a1.7,1.7,0,1,0,1.693,1.7A1.7,1.7,0,0,0,195.508,32.8Zm0,0" transform="translate(-152.748 -25.853)"/><path class="b" d="M457.106,374.688a1.7,1.7,0,1,0,1.692,1.7A1.7,1.7,0,0,0,457.106,374.688Zm0,0" transform="translate(-358.914 -295.294)"/><path class="b" d="M112.4,444.9a1.692,1.692,0,1,0-1.692,1.7A1.7,1.7,0,0,0,112.4,444.9Zm0,0" transform="translate(-85.913 -349.291)"/></g></g></svg>