<svg xmlns="http://www.w3.org/2000/svg" width="262.894" height="75" viewBox="0 0 262.894 75"><defs><style>.a{fill:#fff;}.b{fill:#f0ae1d;}.c{fill:#c9203f;}</style></defs><g transform="translate(-85.089 -85.106)"><g transform="translate(85.089 107.815)"><path class="a" d="M85.089,188.514V163.856h7.535c5.521,0,8.916,1.716,8.916,6.789v11.042c0,5.074-3.395,6.827-8.916,6.827Zm14.773-17.682c0-4.7-3.283-5.372-7.237-5.372H86.768v21.413h5.857c3.954,0,7.237-.746,7.237-5.335Z" transform="translate(-85.089 -163.744)"/><path class="a" d="M171.915,180.07H161.731l-2.873,8.17a3.208,3.208,0,0,1-1.678,0l8.8-24.658a3.5,3.5,0,0,1,1.753,0l8.8,24.658a3.5,3.5,0,0,1-1.753,0Zm-5.111-14.4-4.551,12.945h9.139Z" transform="translate(-136.289 -163.47)"/><path class="a" d="M229.139,165.386h-7.61a2.669,2.669,0,0,1,0-1.529H238.39a2.673,2.673,0,0,1,0,1.529h-7.572v23.128a3.211,3.211,0,0,1-1.679,0Z" transform="translate(-181.91 -163.744)"/><path class="a" d="M292.536,180.07H282.352l-2.872,8.17a3.209,3.209,0,0,1-1.679,0l8.8-24.658a3.5,3.5,0,0,1,1.753,0l8.8,24.658a3.5,3.5,0,0,1-1.753,0Zm-5.111-14.4-4.551,12.945h9.139Z" transform="translate(-221.955 -163.47)"/></g><g transform="translate(219.658 107.368)"><path class="a" d="M549.458,168.715c0-5.148,3.32-6.789,8.655-6.789a28.615,28.615,0,0,1,6.491.6,2.419,2.419,0,0,1,0,1.455,38.019,38.019,0,0,0-6.416-.485c-3.842,0-7.05.671-7.05,5.372v11.751c0,4.625,3.208,5.334,7.05,5.334a19.576,19.576,0,0,0,6.528-1.119,3.485,3.485,0,0,1,.336,1.455,19.1,19.1,0,0,1-6.938,1.306c-5.334,0-8.655-1.641-8.655-6.827Z" transform="translate(-549.458 -161.926)"/><path class="a" d="M638.785,176.3H625.542V188.24a3.208,3.208,0,0,1-1.678,0V163.582a3.208,3.208,0,0,1,1.678,0v11.191h13.243V163.582a3.209,3.209,0,0,1,1.679,0V188.24a3.209,3.209,0,0,1-1.679,0Z" transform="translate(-602.302 -163.023)"/><path class="a" d="M714.678,180.07H704.494l-2.873,8.17a3.208,3.208,0,0,1-1.678,0l8.8-24.658a3.5,3.5,0,0,1,1.753,0l8.8,24.658a3.5,3.5,0,0,1-1.754,0Zm-5.111-14.4-4.551,12.945h9.139Z" transform="translate(-656.334 -163.023)"/><path class="a" d="M787.226,166.119V188.24a3.21,3.21,0,0,1-1.679,0V163.582a4.6,4.6,0,0,1,2.014,0l13.392,22.495V163.582a3.209,3.209,0,0,1,1.679,0V188.24a5.663,5.663,0,0,1-2.239,0Z" transform="translate(-717.131 -163.023)"/><path class="a" d="M882.846,176.362h-6.117a2.416,2.416,0,0,1,0-1.455h7.722v11.378a20.3,20.3,0,0,1-7.162,1.306c-5.447,0-8.841-1.641-8.841-6.827V168.715c0-5.148,3.394-6.789,8.841-6.789a30.281,30.281,0,0,1,6.677.6,2.424,2.424,0,0,1,0,1.455,40.337,40.337,0,0,0-6.6-.485c-3.954,0-7.237.671-7.237,5.372v11.751c0,4.625,3.283,5.334,7.237,5.334a18.341,18.341,0,0,0,5.484-.746Z" transform="translate(-776.007 -161.926)"/><path class="a" d="M947.613,188.514V163.856h12.833a2.674,2.674,0,0,1,0,1.529H949.292v9.773h10.781a2.674,2.674,0,0,1,0,1.53H949.292v10.258h11.154a2.8,2.8,0,0,1,0,1.567Z" transform="translate(-832.232 -163.297)"/></g><g transform="translate(160.295 85.106)"><path class="a" d="M352.7,96.028h10.618c.618,0,1.3.52,2.025,1.521l19.6,31.538a1.417,1.417,0,0,0,2.4-.037l17.035-26.911a1.655,1.655,0,0,0,.22-.715,1.466,1.466,0,0,0-.577-1.187,1.965,1.965,0,0,0-1.25-.42H392.9a3.134,3.134,0,0,0-2.684,1.906l-6.5,9.863a1.391,1.391,0,0,1,.609.592l6.6-10.02c.572-1.013,1.217-1.506,1.972-1.506h9.87a1.136,1.136,0,0,1,.733.241.626.626,0,0,1,.26.53.976.976,0,0,1-.112.307l-17.02,26.883a.571.571,0,0,1-.489.284.593.593,0,0,1-.5-.258L366.032,97.085c-.915-1.273-1.8-1.892-2.718-1.892H352.7a1.907,1.907,0,0,0-1.314.481,1.49,1.49,0,0,0-.558,1.126,1.727,1.727,0,0,0,.24.75l20.3,32.4-19.51,33.134a1.81,1.81,0,0,0-.22.8c0,.6.243,1.607,1.871,1.607h9.825a3.078,3.078,0,0,0,2.694-2.01l16.071-26.9a4.441,4.441,0,0,1,7.55-.035l13.368,21.5a.867.867,0,0,1,.107.475c0,.239,0,.684-1.037.684H391.417c-.577,0-1.265-.562-1.98-1.608l-5.477-8.93-.712.436,5.488,8.948c.913,1.338,1.79,1.989,2.68,1.989H402.08c1.628,0,1.871-.952,1.871-1.519a1.66,1.66,0,0,0-.239-.926L390.35,136.105a5.249,5.249,0,0,0-4.967-2.454,5.305,5.305,0,0,0-4.006,2.5l-16.087,26.929c-.544,1.063-1.186,1.58-1.964,1.58H353.5c-.911,0-1.037-.371-1.037-.772a.967.967,0,0,1,.119-.405l19.753-33.545L351.791,97.142a1.121,1.121,0,0,1-.132-.342.691.691,0,0,1,.28-.5A1.083,1.083,0,0,1,352.7,96.028Z" transform="translate(-349.023 -92.27)"/><circle class="b" cx="2.374" cy="2.374" r="2.374" transform="translate(0.802 69.45)"/><circle class="c" cx="1.601" cy="1.601" r="1.601" transform="translate(13.523 70.997)"/><circle class="c" cx="2.286" cy="2.286" r="2.286" transform="translate(52.16 64.215)"/><path class="b" d="M462.458,278.877a1.663,1.663,0,1,0,1.663,1.663A1.665,1.665,0,0,0,462.458,278.877Z" transform="translate(-427.126 -222.724)"/><circle class="c" cx="1.371" cy="1.371" r="1.371" transform="translate(33.18 18.783)"/><path class="a" d="M458.514,147.955a1.371,1.371,0,1,1-1.371,1.371,1.371,1.371,0,0,1,1.371-1.371m0-.8a2.173,2.173,0,1,0,2.173,2.173,2.175,2.175,0,0,0-2.173-2.173Z" transform="translate(-423.963 -129.173)"/><circle class="c" cx="1.69" cy="1.69" r="1.69" transform="translate(35.305 35.361)"/><path class="a" d="M466.164,205.165a1.69,1.69,0,1,1-1.69,1.69,1.69,1.69,0,0,1,1.69-1.69m0-.8a2.492,2.492,0,1,0,2.492,2.492,2.495,2.495,0,0,0-2.492-2.492Z" transform="translate(-429.169 -169.804)"/><circle class="c" cx="2.353" cy="2.353" r="2.353" transform="translate(20.383 35.361)"/><path class="a" d="M415.334,205.165a2.353,2.353,0,1,1-2.353,2.353,2.353,2.353,0,0,1,2.353-2.353m0-.8a3.155,3.155,0,1,0,3.155,3.155,3.159,3.159,0,0,0-3.155-3.155Z" transform="translate(-392.598 -169.804)"/><circle class="c" cx="2.007" cy="2.007" r="2.007" transform="translate(40.94 6.397)"/><path class="a" d="M485.925,105.215a2.007,2.007,0,1,1-2.007,2.007,2.007,2.007,0,0,1,2.007-2.007m0-.8a2.809,2.809,0,1,0,2.809,2.809,2.812,2.812,0,0,0-2.809-2.809Z" transform="translate(-442.978 -98.818)"/><circle class="b" cx="2.374" cy="2.374" r="2.374" transform="translate(52.324 6.397)"/><path class="a" d="M525.578,105.215a2.374,2.374,0,1,1-2.374,2.374,2.374,2.374,0,0,1,2.374-2.374m0-.8a3.176,3.176,0,1,0,3.176,3.176,3.179,3.179,0,0,0-3.176-3.176Z" transform="translate(-470.88 -98.818)"/><circle class="b" cx="3.11" cy="3.11" r="3.11" transform="translate(11.976 0.802)"/><path class="a" d="M387.08,85.908a3.11,3.11,0,1,1-3.11,3.11,3.11,3.11,0,0,1,3.11-3.11m0-.8a3.912,3.912,0,1,0,3.912,3.912,3.916,3.916,0,0,0-3.912-3.912Z" transform="translate(-371.994 -85.106)"/><path class="a" d="M347.786,322.8a2.374,2.374,0,1,1-2.374,2.374,2.374,2.374,0,0,1,2.374-2.374m0-.8a3.176,3.176,0,1,0,3.176,3.176A3.179,3.179,0,0,0,347.786,322Z" transform="translate(-344.61 -253.349)"/><path class="a" d="M390.911,328.135a1.6,1.6,0,1,1-1.6,1.6,1.6,1.6,0,0,1,1.6-1.6m0-.8a2.4,2.4,0,1,0,2.4,2.4,2.405,2.405,0,0,0-2.4-2.4Z" transform="translate(-375.787 -257.138)"/><path class="a" d="M524.924,304.734a2.286,2.286,0,1,1-2.286,2.286,2.286,2.286,0,0,1,2.286-2.286m0-.8a3.088,3.088,0,1,0,3.088,3.088,3.091,3.091,0,0,0-3.088-3.088Z" transform="translate(-470.478 -240.519)"/><path class="a" d="M460.492,276.912a1.663,1.663,0,1,1-1.663,1.663,1.665,1.665,0,0,1,1.663-1.663m0-.8a2.465,2.465,0,1,0,2.465,2.465,2.468,2.468,0,0,0-2.465-2.465Z" transform="translate(-425.16 -220.759)"/><circle class="b" cx="1.496" cy="1.496" r="1.496" transform="translate(30.824 51.486)"/><path class="a" d="M450.507,260.809a1.5,1.5,0,1,1-1.5,1.5,1.5,1.5,0,0,1,1.5-1.5m0-.8a2.3,2.3,0,1,0,2.3,2.3,2.3,2.3,0,0,0-2.3-2.3Z" transform="translate(-418.187 -209.323)"/></g></g></svg>