<?xml version="1.0" standalone="no"?>
<!DOCTYPE svg PUBLIC "-//W3C//DTD SVG 20010904//EN"
 "http://www.w3.org/TR/2001/REC-SVG-20010904/DTD/svg10.dtd">
<svg version="1.0" xmlns="http://www.w3.org/2000/svg"
 width="213.000000pt" height="61.000000pt" viewBox="0 0 213.000000 61.000000"
 preserveAspectRatio="xMidYMid meet">

<g transform="translate(0.000000,61.000000) scale(0.100000,-0.100000)"
fill="#000000" stroke="none">
<path d="M670 593 c-52 -6 -56 -19 -5 -15 25 2 45 8 45 13 0 5 -1 8 -2 7 -2 0
-19 -3 -38 -5z"/>
<path d="M747 570 c-3 -11 2 -25 11 -32 13 -11 14 -11 7 2 -5 8 -8 23 -7 33 4
23 -4 22 -11 -3z"/>
<path d="M935 552 c-12 -13 -3 -32 15 -32 11 0 20 5 20 10 0 6 13 10 29 10 17
0 32 3 34 8 5 8 -90 12 -98 4z"/>
<path d="M1033 515 c0 -8 4 -12 9 -9 5 3 6 10 3 15 -9 13 -12 11 -12 -6z"/>
<path d="M886 465 c-10 -7 -15 -18 -11 -24 11 -18 22 -12 27 14 3 14 5 25 4
25 0 0 -9 -7 -20 -15z"/>
<path d="M240 428 c0 -3 -16 -49 -35 -102 -19 -53 -32 -96 -29 -96 3 0 10 14
15 30 10 27 15 30 54 30 38 0 44 -3 55 -30 7 -17 14 -29 17 -27 5 5 -57 179
-68 192 -5 5 -9 6 -9 3z m20 -53 c5 -14 13 -37 16 -50 6 -23 3 -25 -30 -25
-20 0 -36 1 -36 3 0 10 33 97 36 97 3 0 9 -11 14 -25z"/>
<path d="M1105 414 c-12 -13 -15 -33 -13 -93 3 -71 5 -77 30 -89 20 -9 37 -10
60 -3 32 9 31 9 -18 10 -61 1 -64 6 -64 96 0 71 4 76 65 86 l40 6 -42 2 c-26
1 -47 -5 -58 -15z"/>
<path d="M1263 330 c1 -58 2 -84 4 -57 l4 47 54 0 54 0 4 -47 c2 -27 3 -3 3
52 0 55 -1 78 -3 52 l-4 -48 -52 3 -52 3 -6 50 c-4 34 -6 15 -6 -55z"/>
<path d="M1510 427 c0 -3 -16 -50 -35 -104 -19 -54 -28 -89 -20 -79 8 11 15
26 15 33 0 9 15 13 46 13 41 0 46 -3 56 -31 6 -16 12 -28 14 -26 6 5 -55 179
-67 192 -5 5 -9 6 -9 2z m20 -52 c5 -14 13 -37 16 -50 6 -23 3 -25 -30 -25
-20 0 -36 1 -36 3 0 10 33 97 36 97 3 0 9 -11 14 -25z"/>
<path d="M1642 328 l2 -103 5 90 6 90 50 -84 c28 -47 56 -86 63 -89 9 -3 12
20 10 95 l-2 98 -5 -89 c-7 -101 -5 -101 -70 11 -23 40 -46 75 -51 78 -6 4 -9
-31 -8 -97z"/>
<path d="M1856 417 c-22 -16 -32 -95 -19 -146 10 -39 44 -54 94 -44 27 5 29 9
29 49 0 43 -1 44 -32 43 -31 -2 -31 -2 -5 -6 23 -4 27 -9 27 -39 l0 -35 -47 3
-48 3 -3 73 c-2 44 2 79 8 87 7 8 30 16 53 18 l42 4 -41 1 c-22 1 -48 -4 -58
-11z"/>
<path d="M0 325 l0 -95 53 0 c29 0 58 5 65 12 16 16 16 150 0 166 -7 7 -36 12
-65 12 l-53 0 0 -95z m108 73 c16 -16 16 -130 0 -146 -7 -7 -31 -12 -55 -12
l-43 0 0 85 0 85 43 0 c24 0 48 -5 55 -12z"/>
<path d="M347 413 l32 -4 4 -92 3 -92 2 92 2 92 33 4 c17 2 1 4 -38 4 -38 0
-56 -2 -38 -4z"/>
<path d="M506 378 c-8 -24 -24 -67 -35 -95 -10 -29 -15 -53 -11 -53 5 0 11 13
15 30 6 28 10 30 51 30 41 0 46 -3 56 -31 6 -16 13 -28 15 -25 8 7 -58 186
-67 186 -5 0 -15 -19 -24 -42z m40 -13 c21 -52 18 -65 -14 -65 -16 0 -31 2
-34 5 -5 5 23 95 30 95 2 0 10 -16 18 -35z"/>
<path d="M2020 325 l0 -95 53 2 52 2 -47 3 -48 4 0 40 0 39 48 2 47 1 -45 6
c-43 6 -45 7 -48 43 l-3 37 48 4 48 3 -52 2 -53 2 0 -95z"/>
<path d="M765 305 l0 -43 28 20 c15 11 27 21 27 23 0 2 -12 12 -27 23 l-28 20
0 -43z"/>
<path d="M924 339 c-3 -6 -14 -9 -24 -6 -15 4 -17 1 -11 -16 10 -27 31 -34 31
-10 0 11 5 24 12 31 7 7 9 12 6 12 -4 0 -10 -5 -14 -11z"/>
<path d="M869 253 c-13 -16 -12 -17 4 -4 9 7 17 15 17 17 0 8 -8 3 -21 -13z"/>
<path d="M920 266 c0 -2 8 -10 18 -17 15 -13 16 -12 3 4 -13 16 -21 21 -21 13z"/>
<path d="M855 189 c-4 -6 -4 -13 -1 -16 3 -4 6 -1 6 6 0 8 6 11 16 7 8 -3 12
-2 9 4 -8 13 -22 13 -30 -1z"/>
<path d="M895 130 c-3 -5 -1 -10 4 -10 6 0 11 5 11 10 0 6 -2 10 -4 10 -3 0
-8 -4 -11 -10z"/>
<path d="M1026 84 c-5 -12 -16 -15 -51 -12 -24 1 -41 0 -37 -4 4 -3 34 -8 67
-10 54 -3 60 -1 60 17 0 24 -30 32 -39 9z"/>
<path d="M643 38 c1 -15 6 -23 11 -18 4 4 4 16 -2 26 -9 16 -10 14 -9 -8z"/>
<path d="M730 40 c-25 -19 -23 -37 3 -27 11 4 33 48 24 47 -1 0 -13 -9 -27
-20z"/>
</g>
</svg>
