<svg xmlns="http://www.w3.org/2000/svg" width="78.972" height="78.972" viewBox="0 0 78.972 78.972"><defs><style>.a{fill:#292662;}</style></defs><g transform="translate(-1 -1)"><path class="a" d="M72.329,43.709V18.73A8.911,8.911,0,1,0,62.14,9.916H1v50.95H39.277A20.367,20.367,0,1,0,72.329,43.709ZM71.056,3.547a6.369,6.369,0,1,1-6.369,6.369A6.376,6.376,0,0,1,71.056,3.547ZM3.547,12.464H62.515a8.91,8.91,0,0,0,1.41,2.783l-7.79,7.79a3.688,3.688,0,0,0-3.275,0L50.294,20.47a3.786,3.786,0,0,0,.382-1.638,3.821,3.821,0,0,0-7.642,0,3.759,3.759,0,0,0,.383,1.637l-6.388,6.388a3.786,3.786,0,0,0-1.638-.382A3.821,3.821,0,1,0,39.212,30.3a3.759,3.759,0,0,0-.383-1.637l6.388-6.388a3.694,3.694,0,0,0,3.275,0l2.567,2.567a3.786,3.786,0,0,0-.382,1.638,3.821,3.821,0,0,0,7.642,0,3.759,3.759,0,0,0-.383-1.637l7.791-7.79a8.862,8.862,0,0,0,4.056,1.684V41.971a20.256,20.256,0,0,0-25.475,4.187V40.486H36.665V55.771h2.919a20.433,20.433,0,0,0-.307,2.547H3.547ZM54.5,25.2a1.274,1.274,0,1,1-1.274,1.274A1.275,1.275,0,0,1,54.5,25.2Zm-8.916-6.369a1.274,1.274,0,1,1,1.274,1.274A1.275,1.275,0,0,1,45.581,18.832ZM36.665,30.3a1.274,1.274,0,1,1-1.274-1.274A1.275,1.275,0,0,1,36.665,30.3ZM59.592,69.782a10.19,10.19,0,1,1,10.19-10.19A10.2,10.2,0,0,1,59.592,69.782ZM41.76,49.747a20.226,20.226,0,0,0-1.514,3.476H39.212V43.033H41.76Zm16.559-7.923V46.92A12.711,12.711,0,0,0,47.99,64.82l-4.419,2.551A17.771,17.771,0,0,1,58.318,41.825Zm1.274,35.6a17.823,17.823,0,0,1-14.76-7.84l4.436-2.562a12.7,12.7,0,0,0,20.647,0l4.436,2.562A17.823,17.823,0,0,1,59.592,77.424ZM75.613,67.371,71.195,64.82a12.711,12.711,0,0,0-10.329-17.9V41.825A17.771,17.771,0,0,1,75.613,67.371Z" transform="translate(0 0)"/><path class="a" d="M48.642,41a7.642,7.642,0,1,0,7.642,7.642A7.65,7.65,0,0,0,48.642,41Zm0,12.737a5.095,5.095,0,1,1,5.095-5.095A5.1,5.1,0,0,1,48.642,53.737Z" transform="translate(10.95 10.95)"/><path class="a" d="M5,12H7.547v2.547H5Z" transform="translate(1.095 3.011)"/><path class="a" d="M9,12H26.832v2.547H9Z" transform="translate(2.19 3.011)"/><path class="a" d="M5,16H7.547v2.547H5Z" transform="translate(1.095 4.106)"/><path class="a" d="M9,16H26.832v2.547H9Z" transform="translate(2.19 4.106)"/><path class="a" d="M5,20H7.547v2.547H5Z" transform="translate(1.095 5.201)"/><path class="a" d="M9,20H26.832v2.547H9Z" transform="translate(2.19 5.201)"/><path class="a" d="M5,24H7.547v2.547H5Z" transform="translate(1.095 6.296)"/><path class="a" d="M9,24H26.832v2.547H9Z" transform="translate(2.19 6.296)"/><path class="a" d="M5,46.737h7.642V34H5Zm2.547-10.19h2.547V44.19H7.547Z" transform="translate(1.095 9.033)"/><path class="a" d="M13,46.19h7.642V36H13Zm2.547-7.642h2.547v5.095H15.547Z" transform="translate(3.285 9.581)"/><path class="a" d="M21,48.38h7.642V28H21Zm2.547-17.832h2.547V45.832H23.547Z" transform="translate(5.475 7.391)"/></g></svg>