<svg xmlns="http://www.w3.org/2000/svg" width="221" height="221" viewBox="0 0 221 221"><defs><style>.a{fill:#292662;stroke:#292662;stroke-width:2px;}.b{fill:#f0ae1d;}.c{fill:#fff;}.d{fill:#c9203f;}.e{stroke:none;}.f{fill:none;}</style></defs><g transform="translate(-847 -1288)"><g class="a" transform="translate(847 1288)"><circle class="e" cx="110.5" cy="110.5" r="110.5"/><circle class="f" cx="110.5" cy="110.5" r="109.5"/></g><circle class="b" cx="4.331" cy="4.331" r="4.331" transform="translate(903.163 1456.417)"/><path class="c" d="M354.236,96.712h19.374c1.132,0,2.385.952,3.7,2.776l35.77,57.545a2.586,2.586,0,0,0,4.378-.063l31.086-49.106a3.046,3.046,0,0,0,.4-1.306,2.644,2.644,0,0,0-1.058-2.163,3.6,3.6,0,0,0-2.279-.767H427.585c-1.946,0-3.606,1.184-4.9,3.474l-11.86,17.978a2.517,2.517,0,0,1,1.11,1.058l12.05-18.279c1.057-1.851,2.221-2.75,3.6-2.75h18.01a2.078,2.078,0,0,1,1.338.439,1.147,1.147,0,0,1,.476.968,1.941,1.941,0,0,1-.206.56l-31.054,49.053a1.059,1.059,0,0,1-1.8.058L378.575,98.642c-1.671-2.321-3.294-3.453-4.965-3.453H354.236a3.479,3.479,0,0,0-2.4.878,2.723,2.723,0,0,0-1.021,2.057,3.22,3.22,0,0,0,.439,1.369l37.013,59.115L352.7,219.061a3.268,3.268,0,0,0-.4,1.47c0,1.095.439,2.929,3.41,2.929h17.946c2.015,0,3.7-1.248,4.912-3.67l29.309-49.09a8.106,8.106,0,0,1,13.779-.063l24.392,39.218a1.586,1.586,0,0,1,.19.867c0,.439,0,1.248-1.888,1.248H424.888c-1.058,0-2.311-1.026-3.611-2.929l-9.994-16.3-1.3.793L420,209.866c1.666,2.443,3.268,3.627,4.891,3.627h19.458c2.972,0,3.411-1.734,3.411-2.771a3.025,3.025,0,0,0-.434-1.687l-24.381-39.207a9.581,9.581,0,0,0-9.063-4.479,9.687,9.687,0,0,0-7.307,4.558l-29.351,49.137c-.994,1.941-2.168,2.882-3.585,2.882h-17.93c-1.66,0-1.888-.677-1.888-1.407a1.765,1.765,0,0,1,.217-.74l36.04-61.209L352.586,98.737a2.036,2.036,0,0,1-.243-.624,1.264,1.264,0,0,1,.529-.92A1.988,1.988,0,0,1,354.236,96.712Z" transform="translate(557.162 1239.835)"/><circle class="d" cx="2.919" cy="2.919" r="2.919" transform="translate(929.375 1459.235)"/><circle class="d" cx="4.172" cy="4.172" r="4.172" transform="translate(999.87 1446.862)"/><path class="b" d="M463.825,278.88a3.035,3.035,0,1,0,3.035,3.035A3.035,3.035,0,0,0,463.825,278.88Z" transform="translate(505.339 1153.272)"/><circle class="d" cx="2.501" cy="2.501" r="2.501" transform="translate(965.241 1363.963)"/><path class="c" d="M460.306,148.615a2.5,2.5,0,1,1-2.5,2.5,2.5,2.5,0,0,1,2.5-2.5m0-1.465a3.966,3.966,0,1,0,3.966,3.966,3.966,3.966,0,0,0-3.966-3.966Z" transform="translate(507.436 1215.348)"/><circle class="d" cx="3.083" cy="3.083" r="3.083" transform="translate(969.117 1394.213)"/><path class="c" d="M468.217,205.825a3.083,3.083,0,1,1-3.083,3.083,3.083,3.083,0,0,1,3.083-3.083m0-1.465a4.547,4.547,0,1,0,4.547,4.547A4.547,4.547,0,0,0,468.217,204.36Z" transform="translate(503.982 1188.389)"/><circle class="d" cx="4.294" cy="4.294" r="4.294" transform="translate(941.891 1394.213)"/><path class="c" d="M417.957,205.825a4.294,4.294,0,1,1-4.294,4.294,4.294,4.294,0,0,1,4.294-4.294m0-1.465a5.765,5.765,0,1,0,.021,0Z" transform="translate(528.228 1188.389)"/><circle class="d" cx="3.664" cy="3.664" r="3.664" transform="translate(979.396 1341.364)"/><path class="c" d="M488.234,105.875a3.664,3.664,0,1,1-3.664,3.664,3.664,3.664,0,0,1,3.664-3.664m0-1.465a5.129,5.129,0,1,0,5.124,5.129A5.129,5.129,0,0,0,488.234,104.41Z" transform="translate(494.826 1235.489)"/><circle class="b" cx="4.331" cy="4.331" r="4.331" transform="translate(1000.171 1341.364)"/><path class="c" d="M528.176,105.875a4.331,4.331,0,1,1-4.331,4.331,4.331,4.331,0,0,1,4.331-4.331m0-1.465a5.816,5.816,0,1,0,5.816,5.816A5.816,5.816,0,0,0,528.176,104.41Z" transform="translate(476.325 1235.489)"/><circle class="b" cx="5.674" cy="5.674" r="5.674" transform="translate(926.552 1331.154)"/><path class="c" d="M390.3,86.569a5.679,5.679,0,1,1-5.674,5.674,5.679,5.679,0,0,1,5.674-5.674m0-1.459a7.138,7.138,0,1,0,7.133,7.133A7.138,7.138,0,0,0,390.3,85.11Z" transform="translate(541.922 1244.584)"/><path class="c" d="M392.893,328.795a2.924,2.924,0,1,1-2.919,2.919,2.924,2.924,0,0,1,2.919-2.919m0-1.465a4.383,4.383,0,1,0,4.383,4.383,4.383,4.383,0,0,0-4.383-4.383Z" transform="translate(539.401 1130.44)"/><path class="c" d="M527.467,305.395a4.172,4.172,0,1,1-4.172,4.172,4.172,4.172,0,0,1,4.172-4.172m0-1.465a5.637,5.637,0,1,0,5.637,5.637,5.637,5.637,0,0,0-5.637-5.637Z" transform="translate(476.575 1141.467)"/><path class="c" d="M462.52,277.575a3.035,3.035,0,1,1-3.035,3.035,3.035,3.035,0,0,1,3.035-3.035m0-1.465a4.5,4.5,0,1,0,4.5,4.5,4.5,4.5,0,0,0-4.5-4.5Z" transform="translate(506.645 1154.577)"/><circle class="b" cx="2.728" cy="2.728" r="2.728" transform="translate(960.942 1423.639)"/><path class="c" d="M452.4,261.469a2.728,2.728,0,1,1-1.931.8,2.734,2.734,0,0,1,1.931-.8m0-1.459A4.193,4.193,0,1,0,456.6,264.2,4.193,4.193,0,0,0,452.4,260.01Z" transform="translate(511.268 1162.164)"/></g></svg>