<svg xmlns="http://www.w3.org/2000/svg" xmlns:xlink="http://www.w3.org/1999/xlink" width="589" height="589" viewBox="0 0 589 589"><defs><style>.a{fill:#fff;stroke:#707070;}.b{fill:#292662;}.c{stroke:none;}.d{fill:none;}.e{filter:url(#a);}</style><filter id="a" x="0" y="0" width="589" height="589" filterUnits="userSpaceOnUse"><feOffset dy="3" input="SourceAlpha"/><feGaussianBlur stdDeviation="49.5" result="b"/><feFlood flood-opacity="0.161"/><feComposite operator="in" in2="b"/><feComposite in="SourceGraphic"/></filter></defs><g transform="translate(-128.5 -3256.5)"><g class="e" transform="matrix(1, 0, 0, 1, 128.5, 3256.5)"><g class="a" transform="translate(148.5 145.5)"><circle class="c" cx="146" cy="146" r="146"/><circle class="d" cx="146" cy="146" r="145.5"/></g></g><g transform="translate(345.244 3453)"><path class="b" d="M118.4,33.7l6.084-12.163a1.552,1.552,0,0,0-1.388-2.247H105.361V7.982a1.552,1.552,0,0,0-1.552-1.552H81.471C81.509,3.115,79.58,0,75.9,0a5.576,5.576,0,0,0-5.57,5.57V30.317a1.552,1.552,0,1,0,3.1,0V5.57a2.465,2.465,0,0,1,4.93,0V67.536H76.231a2.8,2.8,0,0,1-2.794-2.794V37.081a1.552,1.552,0,1,0-3.1,0V57.912c-2.7.115-5.6.848-8.177,5.609A5.285,5.285,0,0,1,57.9,66.656a10.688,10.688,0,0,0-4.039,1.694,1.551,1.551,0,0,0-1.371-.825H47.758V65.46a1.552,1.552,0,0,0-1.552-1.552h-12.9a1.552,1.552,0,0,0-1.552,1.552V83.519a1.552,1.552,0,0,0,3.1,0V67.013h9.792V96.466H34.861v-6.18a1.552,1.552,0,1,0-3.1,0v7.733a1.552,1.552,0,0,0,1.552,1.552H52.494a1.552,1.552,0,0,0,1.552-1.552V96.727a8.237,8.237,0,0,1,4.364,1.616,6.022,6.022,0,0,0,3.67,1.228h8.251v4.877A1.552,1.552,0,0,0,71.884,106h8.035a1.552,1.552,0,0,0,1.552-1.552V99.571h3.212a5.264,5.264,0,0,0,4.354-8.087,5.165,5.165,0,0,0,1.382-7.355,5.16,5.16,0,0,0,1.21-7.221c4.072-2.865,1.877-8.922-2.815-9.365-.048,0-7.344-.007-7.344-.007V35.252H89.4V46.559a1.574,1.574,0,0,0,1.552,1.552H106.88a1.552,1.552,0,1,0,0-3.1H94.7L104.906,34.8a1.569,1.569,0,0,0,.455-1.1V22.393h15.225L115.278,33a1.553,1.553,0,0,0,0,1.389l5.308,10.613h-6.941a1.552,1.552,0,0,0,0,3.1H123.1a1.552,1.552,0,0,0,1.388-2.247ZM50.941,96.466H47.758V70.63h3.183ZM78.366,102.9h-4.93V99.571h4.93ZM88.591,70.641c2.7.288,2.8,4.127-.015,4.127H87.445c-2.248.3-2.11,2.85-.147,3.1C89.98,78.2,90.246,82,87.351,82H86.243c-2.77.034-2.494,3.069-.147,3.1a2.068,2.068,0,1,1,.054,4.134H84.777c-2.616.046-2.064,2.944-.147,3.1,2.766.222,2.892,4.136.052,4.136H62.08a2.9,2.9,0,0,1-1.772-.579A11.682,11.682,0,0,0,54.046,93.6V72.538a6.826,6.826,0,0,1,4.6-2.868A8.269,8.269,0,0,0,64.886,65c1.762-3.261,3.408-3.865,5.445-3.977,0,0,0,3.749,0,3.763a5.905,5.905,0,0,0,5.9,5.859ZM92.5,42.81V35.252h7.559Zm9.754-10.663H81.471V9.534h20.785Z"/><path class="b" d="M66.017,349.732v-6.317a1.552,1.552,0,0,0-3.1,0v6.317a1.552,1.552,0,0,0,3.1,0Z" transform="translate(-24.707 -271.103)"/></g></g></svg>