<svg xmlns="http://www.w3.org/2000/svg" width="122.683" height="122.683" viewBox="0 0 122.683 122.683"><defs><style>.a{fill:#292662;}</style></defs><path class="a" d="M112.415,26.537H83.38a20.855,20.855,0,0,0,.409-4.089A20.374,20.374,0,0,0,80.824,11.9L88.553,6.09h15.683V2H87.878a2.012,2.012,0,0,0-1.227.409L78.37,8.625A20.421,20.421,0,0,0,42.894,22.447a20.856,20.856,0,0,0,.409,4.089H14.268A12.268,12.268,0,0,0,2,38.805V91.968a12.268,12.268,0,0,0,12.268,12.268H54.795l-1.37,8.179H44.939a2,2,0,0,0-1.268.45l-10.224,8.179a2.01,2.01,0,0,0-.654,2.27,2.045,2.045,0,0,0,1.922,1.37H91.968a2.045,2.045,0,0,0,1.922-1.37,2.01,2.01,0,0,0-.654-2.27l-10.224-8.179a2,2,0,0,0-1.268-.45H73.258l-1.37-8.179h40.526a12.268,12.268,0,0,0,12.268-12.268V38.805a12.268,12.268,0,0,0-12.268-12.268ZM65.386,6.233a16.313,16.313,0,0,1,9.692,4.846l-4.785,3.6,2.454,3.272,4.785-3.6a16.245,16.245,0,0,1,2.167,8.1H65.386Zm-4.089,0V24.492a2.045,2.045,0,0,0,2.045,2.045H79.168a16.3,16.3,0,0,1-25.7,8.915L58.884,27.7l-3.353-2.331L50.5,32.548A16.319,16.319,0,0,1,61.3,6.233ZM81.028,116.5l5.112,4.089h-45.6l5.112-4.089Zm-23.453-4.089,1.37-8.179h8.792l1.37,8.179Zm54.839-12.268H14.268a8.179,8.179,0,0,1-8.179-8.179h114.5A8.179,8.179,0,0,1,112.415,100.147Zm8.179-12.268H6.089V38.805a8.179,8.179,0,0,1,8.179-8.179H44.612A20.388,20.388,0,0,0,48.088,36l-6.257,8.935H20.4a6.153,6.153,0,0,0-6.134,6.134v8.179h4.089V51.073A2.045,2.045,0,0,1,20.4,49.029H42.894a2.045,2.045,0,0,0,1.677-.879l6.543-9.344a20.4,20.4,0,0,0,30.957-8.179h30.344a8.179,8.179,0,0,1,8.179,8.179Z" transform="translate(-2 -2)"/><path class="a" d="M54,2h8.179V6.089H54Z" transform="translate(52.325 -2)"/><path class="a" d="M44,6h4.089v4.089H44Z" transform="translate(41.878 2.179)"/><path class="a" d="M48,6H68.447v4.089H48Z" transform="translate(46.057 2.179)"/><path class="a" d="M44,10H60.358v4.089H44Z" transform="translate(41.878 6.358)"/><path class="a" d="M54,10h8.179v4.089H54Z" transform="translate(52.325 6.358)"/><path class="a" d="M6,32H16.224v4.089H6Z" transform="translate(2.179 29.342)"/><path class="a" d="M13,32H55.939v4.089H13Z" transform="translate(9.492 29.342)"/><path class="a" d="M6,36H38.716v4.089H6Z" transform="translate(2.179 33.521)"/><path class="a" d="M24,36H44.447v4.089H24Z" transform="translate(20.984 33.521)"/><path class="a" d="M6,40H26.447v4.089H6Z" transform="translate(2.179 37.7)"/><path class="a" d="M18,40H50.716v4.089H18Z" transform="translate(14.716 37.7)"/><path class="a" d="M12.224,22.447H28.581A10.224,10.224,0,1,0,28.581,2H12.224a10.224,10.224,0,0,0,0,20.447Zm0-16.358H28.581a6.134,6.134,0,1,1,0,12.268H12.224a6.134,6.134,0,1,1,0-12.268Z" transform="translate(-2 -2)"/><path class="a" d="M52.179,34.358H64.447a8.179,8.179,0,1,0,0-16.358H52.179a8.179,8.179,0,1,0,0,16.358Zm0-12.268H64.447a4.089,4.089,0,0,1,0,8.179H52.179a4.089,4.089,0,0,1,0-8.179Z" transform="translate(41.878 14.716)"/><path class="a" d="M36,38.134v8.179a6.134,6.134,0,0,0,12.268,0V38.134a6.134,6.134,0,1,0-12.268,0Zm8.179,0v8.179a2.045,2.045,0,0,1-4.089,0V38.134a2.045,2.045,0,0,1,4.089,0Z" transform="translate(33.52 29.342)"/><path class="a" d="M50.134,54.537A6.134,6.134,0,0,0,56.268,48.4V36.134a6.134,6.134,0,0,0-12.268,0V48.4A6.134,6.134,0,0,0,50.134,54.537Zm-2.045-18.4a2.045,2.045,0,1,1,4.089,0V48.4a2.045,2.045,0,1,1-4.089,0Z" transform="translate(41.878 27.252)"/><path class="a" d="M58.134,28A6.134,6.134,0,0,0,52,34.134V50.492a6.134,6.134,0,0,0,12.268,0V34.134A6.134,6.134,0,0,0,58.134,28Zm2.045,22.492a2.045,2.045,0,1,1-4.089,0V34.134a2.045,2.045,0,1,1,4.089,0Z" transform="translate(50.236 25.163)"/><path class="a" d="M30.134,36.268H50.581a6.134,6.134,0,0,0,0-12.268H30.134a6.134,6.134,0,0,0,0,12.268Zm0-8.179H50.581a2.045,2.045,0,0,1,0,4.089H30.134a2.045,2.045,0,1,1,0-4.089Z" transform="translate(20.984 20.984)"/></svg>