<svg xmlns="http://www.w3.org/2000/svg" width="221" height="221" viewBox="0 0 221 221"><defs><style>.a,.d{fill:none;}.a{stroke:#292662;stroke-width:2px;}.b{stroke:#fff;stroke-width:1.5px;}.c{stroke:none;}</style></defs><g transform="translate(-366 -1330)"><g class="a" transform="translate(366 1330)"><circle class="c" cx="110.5" cy="110.5" r="110.5"/><circle class="d" cx="110.5" cy="110.5" r="109.5"/></g><g transform="translate(2791.621 965.174)"><g transform="translate(-2338.979 412.265)"><path d="M69.936,84.317a5.087,5.087,0,0,0,.929-10.087V70.257a1.59,1.59,0,0,1,1.522-1.582h21.7v5.556a4.922,4.922,0,0,0-3.065,1.87,5.085,5.085,0,1,0,4.961-1.872V68.675h21.7a1.591,1.591,0,0,1,1.523,1.582v3.974a4.944,4.944,0,0,0-3.074,1.87,5.08,5.08,0,1,0,4.97-1.872V70.257a3.488,3.488,0,0,0-3.419-3.478h-21.7v-7.11h20.8a2.3,2.3,0,0,0,2.265-2.308V44.178a2.216,2.216,0,0,0-2.265-2.205H112.42v-.79h4.371a2.277,2.277,0,0,0,2.265-2.278V25.722a2.242,2.242,0,0,0-2.265-2.236H112.42V22.7h4.371a2.251,2.251,0,0,0,2.265-2.247V7.266A2.268,2.268,0,0,0,116.792,5h-43.5a2.268,2.268,0,0,0-2.265,2.266V20.449A2.251,2.251,0,0,0,73.288,22.7H77.66v.79H73.288a2.242,2.242,0,0,0-2.265,2.236V38.9a2.278,2.278,0,0,0,2.265,2.278H77.66v.79H73.288a2.216,2.216,0,0,0-2.265,2.205V57.361a2.3,2.3,0,0,0,2.265,2.308h20.8v7.11h-21.7a3.487,3.487,0,0,0-3.418,3.478v3.974a5.088,5.088,0,0,0,.967,10.087Zm50.213-8.28a3.2,3.2,0,1,1-.4.025,3.2,3.2,0,0,1,.4-.025ZM73.288,20.8a.354.354,0,0,1-.369-.351V7.266a.369.369,0,0,1,.369-.37h43.5a.369.369,0,0,1,.369.37V20.449a.354.354,0,0,1-.369.351H112.42v-.556A1.024,1.024,0,0,0,111.4,19.22H89.036a.948.948,0,0,0,0,1.9h21.488v3.792H79.556V21.116H82.4a.948.948,0,0,0,0-1.9H78.562a.9.9,0,0,0-.9.9V20.8Zm0,18.486a.379.379,0,0,1-.369-.382V25.722a.345.345,0,0,1,.369-.34H77.66V25.8A1.011,1.011,0,0,0,78.669,26.8h32.85a.9.9,0,0,0,.9-.9v-.52h4.371a.345.345,0,0,1,.369.34V38.9a.379.379,0,0,1-.369.382H112.42V38.7a.949.949,0,0,0-.9-.993H78.562a.949.949,0,0,0-.9.993v.587Zm37.236.316v3.634H79.556V39.6ZM73.288,57.773a.407.407,0,0,1-.369-.412V44.178c0-.2.165-.309.369-.309H77.66v.383a.855.855,0,0,0,.9.881h32.957a.855.855,0,0,0,.9-.881v-.383h4.371c.2,0,.369.105.369.309V57.361a.408.408,0,0,1-.369.412ZM94.648,76.061a3.236,3.236,0,0,1,.4-.025,3.2,3.2,0,1,1-.4.025Zm-24.712-.024a3.192,3.192,0,1,1-3.192,3.192,3.192,3.192,0,0,1,3.192-3.192Z" transform="translate(-64.836 -5)"/><path d="M345.383,274.491a3.189,3.189,0,1,0,3.189,3.189A3.189,3.189,0,0,0,345.383,274.491Zm0,4.482a1.293,1.293,0,1,1,1.293-1.293A1.293,1.293,0,0,1,345.383,278.973Z" transform="translate(-298.371 -231.911)"/><path d="M141.956,276H129.948a.948.948,0,0,0-.948.948v3.95a.948.948,0,0,0,.948.948h12.008a.948.948,0,0,0,.948-.948v-3.95A.948.948,0,0,0,141.956,276Zm-.79,3.95H130.9V277.9h10.27Z" transform="translate(-118.862 -233.181)"/><path d="M228.948,276.16a.948.948,0,0,0-.948.948v3.955a.948.948,0,1,0,1.9,0v-3.955A.948.948,0,0,0,228.948,276.16Z" transform="translate(-202.22 -233.316)"/><path d="M250.948,276.16a.948.948,0,0,0-.948.948v3.955a.948.948,0,1,0,1.9,0v-3.955A.948.948,0,0,0,250.948,276.16Z" transform="translate(-220.744 -233.316)"/><path d="M345.383,164.061a3.189,3.189,0,1,0-3.189-3.189A3.189,3.189,0,0,0,345.383,164.061Zm0-4.482a1.293,1.293,0,1,1-1.293,1.293,1.293,1.293,0,0,1,1.293-1.293Z" transform="translate(-298.371 -133.559)"/><path d="M142.9,163.9v-3.95a.948.948,0,0,0-.948-.948H129.948a.948.948,0,0,0-.948.948v3.95a.948.948,0,0,0,.948.948h12.008A.948.948,0,0,0,142.9,163.9Zm-1.738-.948H130.9V160.9h10.27Z" transform="translate(-118.862 -134.668)"/><path d="M228.948,165.2a.948.948,0,0,0,.948-.948V160.3a.948.948,0,1,0-1.9,0v3.955A.948.948,0,0,0,228.948,165.2Z" transform="translate(-202.22 -134.965)"/><path d="M250.948,165.2a.948.948,0,0,0,.948-.948V160.3a.948.948,0,1,0-1.9,0v3.955A.948.948,0,0,0,250.948,165.2Z" transform="translate(-220.744 -134.965)"/><path d="M345.383,47.254a3.189,3.189,0,1,0-3.189-3.189A3.189,3.189,0,0,0,345.383,47.254Zm0-4.482a1.293,1.293,0,1,1-1.293,1.293A1.293,1.293,0,0,1,345.383,42.772Z" transform="translate(-298.371 -35.207)"/><path d="M142.9,47.9v-3.95a.948.948,0,0,0-.948-.948H129.948a.948.948,0,0,0-.948.948V47.9a.948.948,0,0,0,.948.948h12.008A.948.948,0,0,0,142.9,47.9Zm-1.738-.948H130.9V44.9h10.27Z" transform="translate(-118.862 -36.996)"/><path d="M228.948,48.4a.948.948,0,0,0,.948-.948V43.493a.948.948,0,0,0-1.9,0v3.955A.948.948,0,0,0,228.948,48.4Z" transform="translate(-202.22 -36.613)"/><path d="M250.948,48.4a.948.948,0,0,0,.948-.948V43.493a.948.948,0,1,0-1.9,0v3.955A.948.948,0,0,0,250.948,48.4Z" transform="translate(-220.744 -36.613)"/><path d="M271.948,276.16a.948.948,0,0,0-.948.948v3.955a.948.948,0,1,0,1.9,0v-3.955A.948.948,0,0,0,271.948,276.16Z" transform="translate(-238.426 -233.316)"/><path d="M271.948,165.2a.948.948,0,0,0,.948-.948V160.3a.948.948,0,1,0-1.9,0v3.955A.948.948,0,0,0,271.948,165.2Z" transform="translate(-238.426 -134.965)"/><path d="M271.948,48.4a.948.948,0,0,0,.948-.948V43.493a.948.948,0,1,0-1.9,0v3.955A.948.948,0,0,0,271.948,48.4Z" transform="translate(-238.426 -36.613)"/></g><g transform="translate(-2370.296 491.582)"><path class="b" d="M90.194,237.251l-18.5,6.36a7.831,7.831,0,0,0-7.721-9.241H51.264a1.963,1.963,0,0,1-.964-.252l-10.368-5.831a13.748,13.748,0,0,0-6.736-1.766H19.286a5.9,5.9,0,0,0-5.549-3.924H1.962A1.962,1.962,0,0,0,0,224.56v35.322a1.962,1.962,0,0,0,1.962,1.962H13.737a5.9,5.9,0,0,0,5.494-3.777,17.915,17.915,0,0,1,6.407,1.9L35.9,266.127a25.016,25.016,0,0,0,23.223,1.325L95.75,251.324a7.565,7.565,0,0,0-5.556-14.073ZM15.7,255.966a1.965,1.965,0,0,1-1.962,1.953H3.925v-31.4h9.812a1.965,1.965,0,0,1,1.962,1.962Zm78.56-8.271-.062.025L57.509,263.874a21.09,21.09,0,0,1-19.589-1.113L27.656,256.6a21.638,21.638,0,0,0-8.033-2.443V230.447H33.2a9.818,9.818,0,0,1,4.812,1.261l10.368,5.831a5.9,5.9,0,0,0,2.888.757H63.972a3.925,3.925,0,0,1,0,7.849H44.024a1.962,1.962,0,1,0,0,3.924H63.972a7.834,7.834,0,0,0,3.679-.919l23.86-8.2a3.643,3.643,0,1,1,2.747,6.746Zm0,0" transform="translate(0 -222.597)"/></g></g></g></svg>