<svg xmlns="http://www.w3.org/2000/svg" width="221" height="221" viewBox="0 0 221 221"><defs><style>.a,.f{fill:none;}.a{stroke:#292662;stroke-width:2px;}.b{stroke:#fff;}.c{fill:#fff;}.d{stroke:#000;stroke-width:0.25px;}.e{stroke:none;}</style></defs><g transform="translate(-1337 -1330)"><g class="a" transform="translate(1337 1330)"><circle class="e" cx="110.5" cy="110.5" r="110.5"/><circle class="f" cx="110.5" cy="110.5" r="109.5"/></g><g transform="translate(1677.853 299.023)"><g transform="translate(-287 1078)"><path class="b" d="M57.877,21H23.888A1.888,1.888,0,0,0,22,22.888V68.206a1.888,1.888,0,0,0,1.888,1.888H57.877a1.888,1.888,0,0,0,1.888-1.888V22.888A1.888,1.888,0,0,0,57.877,21ZM55.988,66.318H25.776V54.988H55.988Zm0-15.106H25.776V39.882H55.988Zm0-15.106H25.776V24.776H55.988Z" transform="translate(15.765 14.877)"/><path class="b" d="M74.1,2H47.665A5.682,5.682,0,0,0,42,7.665V22.771a5.682,5.682,0,0,0,5.665,5.665h7.553v3.776H51.441v3.776H70.324V32.212H66.547V28.435H74.1a5.682,5.682,0,0,0,5.665-5.665V7.665A5.682,5.682,0,0,0,74.1,2ZM62.771,32.212H58.994V28.435h3.776Zm13.218-9.441A1.888,1.888,0,0,1,74.1,24.659H47.665a1.888,1.888,0,0,1-1.888-1.888V20.882H75.988Zm0-5.665H45.777V7.665a1.888,1.888,0,0,1,1.888-1.888H74.1a1.888,1.888,0,0,1,1.888,1.888Z" transform="translate(33.53 -2)"/><path class="b" d="M30.324,51.553H28.435V49.665A5.682,5.682,0,0,0,22.771,44H7.665A5.682,5.682,0,0,0,2,49.665V72.324a5.682,5.682,0,0,0,5.665,5.665H30.324a5.682,5.682,0,0,0,5.665-5.665V57.218A5.682,5.682,0,0,0,30.324,51.553ZM17.446,74.212H7.665a1.888,1.888,0,0,1-1.888-1.888V49.665a1.888,1.888,0,0,1,1.888-1.888H22.771a1.888,1.888,0,0,1,1.888,1.888v1.888H22.771a5.682,5.682,0,0,0-5.665,5.665V72.324A5.665,5.665,0,0,0,17.446,74.212Zm14.766-1.888a1.888,1.888,0,0,1-1.888,1.888H22.771a1.888,1.888,0,0,1-1.888-1.888V57.218a1.888,1.888,0,0,1,1.888-1.888h7.553a1.888,1.888,0,0,1,1.888,1.888Z" transform="translate(-2 35.306)"/><path class="b" d="M43.372,13.481a9.413,9.413,0,0,0-11.9-7.326A11.171,11.171,0,0,0,22.752,2,11.375,11.375,0,0,0,12.046,9.629a11.329,11.329,0,0,0,1.265,22.583H41.634a9.441,9.441,0,0,0,1.737-18.731ZM41.634,28.435H13.311a7.564,7.564,0,1,1-.17-15.126,1.467,1.467,0,0,0,.3.039,1.905,1.905,0,0,0,1.907-1.511A7.534,7.534,0,0,1,29.191,9.421a1.852,1.852,0,0,0,2.436.718,5.621,5.621,0,0,1,8.119,5.079,1.888,1.888,0,0,0,1.888,1.888,5.665,5.665,0,0,1,0,11.329Z" transform="translate(-1.981 -2)"/><path class="b" d="M26,25h3.776v3.776H26Z" transform="translate(19.318 18.43)"/><path class="b" d="M31,25h3.776v3.776H31Z" transform="translate(23.759 18.43)"/><path class="b" d="M36,25h3.776v3.776H36Z" transform="translate(28.2 18.43)"/><path class="b" d="M26,33h3.776v3.776H26Z" transform="translate(19.318 25.536)"/><path class="b" d="M31,33h3.776v3.776H31Z" transform="translate(23.759 25.536)"/><path class="b" d="M36,33h3.776v3.776H36Z" transform="translate(28.2 25.536)"/><path class="b" d="M26,41h3.776v3.776H26Z" transform="translate(19.318 32.642)"/><path class="b" d="M31,41h3.776v3.776H31Z" transform="translate(23.759 32.642)"/><path class="b" d="M36,41h3.776v3.776H36Z" transform="translate(28.2 32.642)"/><path class="b" d="M60.994,35.218V22H57.218V33.329H44v3.776H59.106A1.888,1.888,0,0,0,60.994,35.218Z" transform="translate(35.306 15.765)"/><path class="b" d="M44,37.776H57.218V52.882h3.776V35.888A1.888,1.888,0,0,0,59.106,34H44Z" transform="translate(35.306 26.424)"/><path class="b" d="M14.776,20H11V36.994a1.888,1.888,0,0,0,1.888,1.888H27.994V35.106H14.776Z" transform="translate(5.994 13.988)"/><path class="b" d="M11,35.888V49.106h3.776V37.776H27.994V34H12.888A1.888,1.888,0,0,0,11,35.888Z" transform="translate(5.994 26.424)"/></g><rect class="c" width="32.1" height="33.988" transform="translate(-219.023 1132.759)"/><g transform="translate(-228.378 1132.759)"><path class="d" d="M29.2,19.609a1.2,1.2,0,0,0,1.2-1.2V17.2A1.2,1.2,0,1,0,28,17.2v1.2A1.2,1.2,0,0,0,29.2,19.609Z" transform="translate(-5.476 0.844)"/><path class="d" d="M35.2,16A1.2,1.2,0,0,0,34,17.2v1.2a1.2,1.2,0,1,0,2.406,0V17.2A1.2,1.2,0,0,0,35.2,16Z" transform="translate(-4.257 0.844)"/><path class="d" d="M32.812,24.2c-1.469,0-2.406-.712-2.406-1.2H28c0,2.024,2.114,3.609,4.812,3.609S37.625,25.024,37.625,23H35.219C35.219,23.491,34.282,24.2,32.812,24.2Z" transform="translate(-5.476 2.266)"/><path class="d" d="M63.878,71.192l-.6-2.406a2.428,2.428,0,0,0-1.287-1.576l1.035-21.777a2.406,2.406,0,0,0-2.406-2.527H53.555a8.653,8.653,0,0,0-1.3-1.708V17.641a15.641,15.641,0,0,0-31.281,0V41.2a8.653,8.653,0,0,0-1.3,1.708H12.613a2.406,2.406,0,0,0-2.406,2.527l1.035,21.777a2.428,2.428,0,0,0-1.287,1.576l-.6,2.418a2.4,2.4,0,0,0,2.334,2.984H61.544a2.406,2.406,0,0,0,2.334-3Zm-40.5-53.551a13.234,13.234,0,0,1,26.469,0V39.477a10.2,10.2,0,0,0-1.191-.469l-2.6-.782a4.773,4.773,0,0,1-3.4-4.379,12.9,12.9,0,0,0,1.372-1.083,10.916,10.916,0,0,0,3.417-7.9V15.234a3.62,3.62,0,0,0-3.609-3.609H42.282A4.55,4.55,0,0,1,39.431,10.6a1.194,1.194,0,0,0-1.071-.241,1.263,1.263,0,0,0-.818.746,4.5,4.5,0,0,1-4.187,2.924H29.4a3.62,3.62,0,0,0-3.609,3.609v6.894a11.238,11.238,0,0,0,4.8,9.252,4.775,4.775,0,0,1-3.417,4.44l-2.6.782a8.443,8.443,0,0,0-1.191.469ZM50.535,42.906H44.063a6.266,6.266,0,0,0,1.745-2.238l2.154.65a5.961,5.961,0,0,1,2.575,1.588ZM32.861,35a10.567,10.567,0,0,0,3.044.662c.241.012.481.024.722.024a10.847,10.847,0,0,0,3.742-.674,7.114,7.114,0,0,0,3.236,4.692c-.806,1.817-3.706,3.2-6.99,3.2s-6.184-1.384-6.99-3.2A7.138,7.138,0,0,0,32.861,35ZM28.193,24.534V17.641a1.2,1.2,0,0,1,1.2-1.2h3.958a6.919,6.919,0,0,0,5.787-3.164,6.871,6.871,0,0,0,3.14.758h1.552a1.2,1.2,0,0,1,1.2,1.2v9.625a8.4,8.4,0,0,1-8.975,8.4,8.6,8.6,0,0,1-7.868-8.723ZM25.27,41.318l2.154-.65a6.266,6.266,0,0,0,1.745,2.238H22.7A5.961,5.961,0,0,1,25.27,41.318Zm35.348,3.994L59.595,66.969H13.636L12.613,45.312ZM11.686,71.781l.6-2.406H60.942l.6,2.406Z" transform="translate(-9.279 -2)"/><path class="d" d="M32.812,51.625A4.813,4.813,0,1,0,28,46.813,4.813,4.813,0,0,0,32.812,51.625Zm0-7.219a2.406,2.406,0,1,1-2.406,2.406A2.406,2.406,0,0,1,32.812,44.406Z" transform="translate(-5.476 6.125)"/></g></g></g></svg>