<svg xmlns="http://www.w3.org/2000/svg" width="107.391" height="102.032" viewBox="0 0 107.391 102.032"><defs><style>.a,.b{fill:#292662;}.b{stroke:#292662;stroke-width:0.75px;}</style></defs><g transform="translate(0)"><path class="a" d="M-185.042,463.032V443.347h2.248V462.9h2.812V443.334h2.229V462.9h3.165V443.354h2.279v19.515h3.352v-19.53h2.317V462.89h2.569V443.351h2.33v1.667c0,5.468.032,10.936-.025,16.4-.012,1.213.272,1.632,1.574,1.618,6.55-.071,13.1-.032,19.652-.032h1.8v38.006h11.664v2.221H-234.464v-2.191h11.627V421.018h3.747v-4.839c0-.182,0-.364,0-.547,0-3.126,0-3.162,3.038-3.242.934-.025,1.158-.4,1.133-1.238-.042-1.457.033-2.917-.012-4.373-.026-.834.277-1.118,1.1-1.1,2.307.041,4.615.014,7.051.014V401.3l2.309-.1v4.5h8.252c0,1.874.063,3.6-.023,5.311-.056,1.11.355,1.468,1.41,1.384.851-.067,1.712-.014,2.739-.014v8.546h3.708v15.707c3.167.619,3.326.5,3.327-2.379,0-1.686.027-3.372-.01-5.058-.016-.761.254-1.043,1.026-1.041q10.645.029,21.289,0c.783,0,1.027.3,1.016,1.049-.03,2.1.052,4.194-.03,6.287-.044,1.112.348,1.429,1.4,1.365,1.308-.08,2.625-.019,4.061-.019v22.646h-2.156v-1.674c0-5.787-.008-11.573.008-17.36,0-.805-.007-1.373-1.114-1.368-9.28.042-18.56.03-27.84.041a8.189,8.189,0,0,0-.95.127v20.265h-2.191V423.465h-29.882v77.448h3.127V481.73h12.311v2.158H-214.8c-.046.537-.107.93-.108,1.324-.011,4.784.016,9.569-.041,14.353-.013,1.095.241,1.55,1.426,1.489,1.86-.1,3.731-.074,5.593-.008.98.035,1.235-.328,1.224-1.262-.044-3.553-.016-7.108-.015-10.662v-1.59h2.28v2.97q0,4.374,0,8.748c0,1.8,0,1.806,1.765,1.775.314-.005.628-.04,1.148-.074v-37.92Zm43.956,37.928c.033-.567.077-.969.077-1.371,0-10.978-.016-21.955.027-32.932,0-1.2-.446-1.41-1.513-1.408q-27.627.041-55.253-.007c-1.224,0-1.516.357-1.511,1.541.043,10.932.025,21.864.028,32.8,0,.44.047.88.076,1.382Zm-53.322-86.188h-22.309v6.112h22.309Zm11.656,15.733c0,2-.041,3.815.047,5.619.012.253.654.681,1.006.683,5.538.04,11.078.008,16.616.035.879,0,1.074-.375,1.054-1.148-.034-1.318-.046-2.639.021-3.955.048-.943-.269-1.273-1.233-1.252-2.541.057-5.085.019-7.627.018ZM-198.5,412.27c0-1.244.055-2.379-.038-3.5a1.132,1.132,0,0,0-.8-.76q-6.275-.065-12.552.015a1.031,1.031,0,0,0-.72.7c-.079,1.162-.034,2.332-.034,3.547Z" transform="translate(234.464 -401.202)"/><path class="a" d="M-175.681,464.672c0-1.207.041-2.242-.013-3.271-.047-.892.393-1.071,1.159-1.052.708.017,1.238.057,1.2,1.005-.057,1.544-.047,3.093-.013,4.638.016.752-.241,1.048-1.018,1.046q-10.693-.029-21.387,0c-.692,0-.99-.243-.978-.95.027-1.637.026-3.275.015-4.912-.007-.96.708-.872,1.237-.759a2.279,2.279,0,0,1,1.079.788c.136.156.028.526.029.8.009,2.687.009,2.689,2.757,2.687q7.152-.005,14.3-.015Z" transform="translate(213.922 -433.399)"/><path class="a" d="M-175.66,488.642c0-1.245.043-2.285-.013-3.32-.051-.935.462-1.029,1.192-1.011.649.016,1.162.041,1.14.924-.039,1.593-.023,3.189.008,4.783.013.705-.273.966-.968.965q-10.712-.023-21.423-.01c-.672,0-1.006-.21-.992-.94.03-1.594.039-3.19,0-4.783-.023-.866.457-.943,1.126-.938.69,0,1.32.007,1.214.976a3.514,3.514,0,0,0,0,.41c.035,2.961.035,2.949,2.929,2.944,4.685-.009,9.37,0,14.055,0Z" transform="translate(213.916 -446.445)"/><path class="a" d="M-194.4,508.378c0,1.063.035,2.06-.011,3.053-.036.8.215,1.135,1.074,1.131q8.324-.044,16.648,0c.794,0,1.037-.311,1.011-1.053-.036-1.035-.009-2.073-.009-3.071,2.224-.485,2.314-.414,2.315,1.667,0,1.139-.057,2.282.017,3.416.067,1.014-.281,1.353-1.31,1.337-3.229-.051-6.459,0-9.688,0-3.685,0-7.369-.038-11.053,0-.982.011-1.417-.24-1.344-1.3.078-1.133.008-2.277.006-3.416C-196.744,508.015-196.743,508.015-194.4,508.378Z" transform="translate(213.935 -459.444)"/><path class="a" d="M-196.444,556.382h2.215v4.235c2.895,0,5.6,0,8.313,0,1.916,0,1.925,0,1.576,2.254h-12.1Z" transform="translate(213.766 -485.68)"/><path class="a" d="M-184.428,536.615v2.322c-2.892,0-5.7-.008-8.509,0-3.76.014-3.76.02-3.76-3.755v-2.754h2.3v4.184Z" transform="translate(213.904 -472.641)"/><path class="a" d="M-64.357,440.106v2.085H-76.894v-2.085Z" transform="translate(148.685 -422.381)"/><path class="a" d="M-99.91,421.485v2.186h-2.8q-3.136,0-6.272,0c-2.017,0-2.034-.016-1.668-2.188Z" transform="translate(167.163 -412.244)"/><path class="a" d="M-49.062,410.205v-2.232h8.32c2,0,2,0,1.659,2.232Z" transform="translate(133.534 -404.888)"/><path class="a" d="M-154.351,546.191c.628-.357,1.237-.965,1.887-1.012,1-.072,1.553.68,1.443,1.71s-.832,1.628-1.787,1.344c-.622-.186-1.085-.91-1.619-1.392Z" transform="translate(190.893 -479.579)"/><path class="a" d="M-37.418,548.3c-1.494-.066-2.1-.6-2.105-1.622A1.431,1.431,0,0,1-38,545.118c1.009-.022,1.738.57,1.581,1.577C-36.522,547.341-37.156,547.9-37.418,548.3Z" transform="translate(128.341 -479.548)"/><path class="a" d="M-152.268,610.013a1.514,1.514,0,0,1,1.6,1.635A1.443,1.443,0,0,1-152.2,613.2a1.439,1.439,0,0,1-1.593-1.483A1.514,1.514,0,0,1-152.268,610.013Z" transform="translate(190.548 -514.876)"/><path class="a" d="M-37.946,610a1.543,1.543,0,0,1,1.574,1.7,1.438,1.438,0,0,1-1.581,1.5,1.445,1.445,0,0,1-1.551-1.533A1.536,1.536,0,0,1-37.946,610Z" transform="translate(128.331 -514.866)"/></g><g transform="translate(47.704 67.161)"><path class="b" d="M-99.006,559.162c-.638.267-1.215.544-1.816.751a18.606,18.606,0,0,1-4.848.867c-1.134.077-2.274.076-3.412.112-.078,0-.155.015-.262.026v4.773c.755,0,1.489.03,2.22-.005a21.992,21.992,0,0,0,6.318-1.037,8.371,8.371,0,0,0,1.024-.461A1.2,1.2,0,0,0-99,562.88a.522.522,0,0,1,.032-.352c.121-.149.3-.354.449-.348s.318.22.431.377c.058.08.019.234.019.354,0,1.943-.024,3.886.011,5.828a2,2,0,0,1-1.01,1.834,8.731,8.731,0,0,1-2.75,1.088,28.144,28.144,0,0,1-6.975.7q-.2,0-.4,0a1.049,1.049,0,0,0-.157.036c-.006.135-.019.278-.019.421,0,.831-.03,1.663.007,2.492a2.016,2.016,0,0,1-1.035,1.9,9.578,9.578,0,0,1-3.578,1.252,30.555,30.555,0,0,1-11.659-.124,13.94,13.94,0,0,1-2.893-1.043,2.086,2.086,0,0,1-1.23-2.109q.05-8.139,0-16.28a2.156,2.156,0,0,1,1.171-2.027,10.391,10.391,0,0,1,4.15-1.3c1.672-.2,3.36-.26,5.041-.373.292-.02.587,0,.927,0,.01-.164.027-.305.027-.446,0-.8.046-1.611-.01-2.411a2.113,2.113,0,0,1,1.234-2.115,10.083,10.083,0,0,1,3.608-1.169c1.35-.193,2.71-.311,4.068-.449.415-.042.629.118.645.422s-.179.473-.593.5a21.928,21.928,0,0,0-5.739.883,8.985,8.985,0,0,0-1.877.881c-.56.347-.538.74-.022,1.156a6.325,6.325,0,0,0,2.533,1.072,27.02,27.02,0,0,0,7.978.663,19.468,19.468,0,0,0,5.946-1.059,5.721,5.721,0,0,0,1.3-.7c.489-.349.5-.791,0-1.105a9.128,9.128,0,0,0-1.907-.909,21.55,21.55,0,0,0-5.658-.881l-.16-.008c-.3-.02-.535-.143-.523-.481.013-.365.272-.457.59-.443.294.013.589.024.883.046a19.677,19.677,0,0,1,5.627,1.036,9.4,9.4,0,0,1,1.9,1.078,1.421,1.421,0,0,1,.548,1.239q-.007,4.12,0,8.24c0,.328-.069.6-.45.638-.3.03-.477-.211-.485-.645C-99.011,559.886-99.006,559.529-99.006,559.162Zm-11.3.866c-.655.271-1.233.556-1.841.751a23.978,23.978,0,0,1-7.293.974,24.132,24.132,0,0,1-7.573-.978c-.6-.195-1.176-.485-1.773-.735a.933.933,0,0,0-.028.156c0,1.3-.019,2.6.015,3.9a.931.931,0,0,0,.359.663,7.7,7.7,0,0,0,1.6.82,20.622,20.622,0,0,0,6,.961,25.381,25.381,0,0,0,8-.787,11.857,11.857,0,0,0,2.047-.9.916.916,0,0,0,.5-.934c-.03-.615-.007-1.232-.007-1.847Zm-18.492,5.757c-.005.114-.017.242-.017.37,0,1.151.017,2.3-.01,3.454a1,1,0,0,0,.558,1.024,12.029,12.029,0,0,0,2.214.911,27.664,27.664,0,0,0,12.728.067,13.214,13.214,0,0,0,2.481-.991.867.867,0,0,0,.54-.827c-.01-1.285,0-2.571-.005-3.857a1.11,1.11,0,0,0-.032-.186.608.608,0,0,0-.144.035,11.491,11.491,0,0,1-3.9,1.286,30.812,30.812,0,0,1-6.762.382,21.043,21.043,0,0,1-5.616-.871C-127.442,566.364-128.1,566.062-128.793,565.785Zm-.018,5.713v.436c0,1.112.029,2.226-.012,3.336a1.133,1.133,0,0,0,.668,1.171,12.91,12.91,0,0,0,2,.813,23.779,23.779,0,0,0,6.241.768,24.6,24.6,0,0,0,7-.783,12.916,12.916,0,0,0,2.155-.947.9.9,0,0,0,.462-.911c-.021-1.165-.007-2.332-.009-3.5,0-.128-.015-.256-.02-.347-.816.306-1.594.668-2.41.891a26.774,26.774,0,0,1-8.328.757,22.025,22.025,0,0,1-5.854-.921C-127.543,572.059-128.145,571.77-128.811,571.5Zm9.761-10.645c.736-.052,2.026-.082,3.3-.254a25.486,25.486,0,0,0,3.368-.725,6.139,6.139,0,0,0,1.653-.793c.588-.38.56-.763.007-1.21a1.133,1.133,0,0,0-.263-.182,19.06,19.06,0,0,0-2.083-.82,24.012,24.012,0,0,0-6.362-.749,23.993,23.993,0,0,0-6.873.823,8.806,8.806,0,0,0-2.006.887c-.677.4-.668.88-.005,1.3a7.254,7.254,0,0,0,1.625.764A25.6,25.6,0,0,0-119.05,560.853Zm1.558-5.644c.96.125,1.892.22,2.814.373a11.632,11.632,0,0,1,4.191,1.31,1.977,1.977,0,0,1,1.116,1.975c-.021.239.012.483-.007.723-.023.279.081.368.362.372a27.515,27.515,0,0,0,6.94-.662,6.5,6.5,0,0,0,2.584-1.053,1.18,1.18,0,0,0,.462-.735c.046-1.312.021-2.626.018-3.939a.681.681,0,0,0-.046-.161,1.236,1.236,0,0,0-.163.065,11.472,11.472,0,0,1-3.872,1.266,28.629,28.629,0,0,1-7.647.313,37.951,37.951,0,0,1-4.467-.74,16.478,16.478,0,0,1-2.285-.849Zm8.121,11.42c0,1.557,0,3.067.013,4.576,0,.072.19.2.293.2a24.841,24.841,0,0,0,6.852-.63,17.746,17.746,0,0,0,2.612-.985,1.026,1.026,0,0,0,.6-1.078c-.035-.949-.01-1.9-.01-2.851v-.993C-102.3,566.515-105.8,566.624-109.371,566.629Z" transform="translate(129.761 -548.609)"/></g></svg>