<svg xmlns="http://www.w3.org/2000/svg" width="102.55" height="102.723" viewBox="0 0 102.55 102.723"><defs><style>.a{fill:#292662;stroke:#fff;stroke-width:0.7px;}</style></defs><g transform="translate(0.35 0.349)"><path class="a" d="M-297.738,298.9v6.579h17.952v6.8h16.456v-6.748H-245.4V298.9h-15.855c-3.3,0-5.365-1.987-5.371-5.271q-.029-16.091,0-32.182c.006-3.275,2.079-5.3,5.378-5.3q17.6-.016,35.2,0a5.012,5.012,0,0,1,5.416,5.415q.019,15.957.005,31.915c0,3.382-2.027,5.421-5.375,5.428-4.8.01-9.6,0-14.4,0h-1.558v9.833h-18.1c0,1.362-.051,2.594.038,3.815.021.286.471.648.8.786,1.88.781,3.854,1.366,5.661,2.283a5.819,5.819,0,0,1,3.39,5.846c-.14,3.907-.035,7.822-.035,11.959,2.043,0,4.018.034,5.988-.049.212-.009.557-.7.566-1.074.054-2.269.013-4.54.032-6.81a4.926,4.926,0,0,1,5.173-5.213q6.266-.042,12.531,0a5,5,0,0,1,5.272,5.292q.03,9.548,0,19.1a4.927,4.927,0,0,1-5.179,5.216q-6.4.035-12.8.005a4.835,4.835,0,0,1-4.993-4.958c-.035-2.66-.008-5.321-.008-8.069h-6.592v1.481c0,3.606-.062,7.212.023,10.816a5.522,5.522,0,0,1-2.592,4.954,21.941,21.941,0,0,1-9.609,3.328,54.565,54.565,0,0,1-22.475-.929,23.294,23.294,0,0,1-5.435-2.433,5.167,5.167,0,0,1-2.613-4.92c.081-3.6.025-7.21.028-10.816v-1.5h-6.522c-.023.428-.063.851-.064,1.274-.008,2.27.022,4.54-.013,6.81a4.809,4.809,0,0,1-4.864,4.947q-6.6.067-13.2,0a4.828,4.828,0,0,1-4.891-4.815q-.089-9.948,0-19.9a4.85,4.85,0,0,1,4.857-4.867q6.664-.1,13.331-.005a4.852,4.852,0,0,1,4.765,4.934c.04,2.359.044,4.719,0,7.077-.018.879.278,1.172,1.145,1.147,1.766-.05,3.535-.015,5.453-.015,0-1.581,0-3.038,0-4.494,0-2.671.058-5.343-.009-8.012a4.739,4.739,0,0,1,2.279-4.541,50.637,50.637,0,0,1,6.524-2.9c.777-.3,1.171-.564,1.1-1.456-.085-1.012-.02-2.036-.02-3.191H-301.09V298.9h-1.746q-7.132,0-14.265,0a4.966,4.966,0,0,1-5.358-5.3q-.021-16.091,0-32.182a4.984,4.984,0,0,1,5.289-5.272q17.731-.021,35.462,0a4.91,4.91,0,0,1,5.231,5.171q.05,16.225.014,32.449a4.906,4.906,0,0,1-5.25,5.133c-4.8.014-9.6,0-14.4,0Zm54.052-3.261v.008q8.733,0,17.465,0c1.7,0,2.27-.547,2.272-2.217q.013-15.758,0-31.516c0-1.987-.47-2.45-2.444-2.45q-17.332,0-34.664.015c-1.755,0-2.24.487-2.242,2.209q-.014,15.825-.01,31.65c0,1.794.508,2.3,2.294,2.3Q-252.352,295.647-243.686,295.641Zm-75.358-22.929a6.933,6.933,0,0,0-.107.838q-.008,10.012,0,20.024c0,1.546.612,2.066,2.276,2.067q17.325.008,34.65.007c1.958,0,2.432-.476,2.433-2.437q.006-9.611,0-19.223v-1.275Zm39.167-3.476a4.83,4.83,0,0,0,.081-.553c0-2.312.011-4.624,0-6.937-.01-1.8-.487-2.274-2.309-2.285-2.264-.014-4.528-.005-6.793,0q-13.784.007-27.568.017c-2.329,0-2.667.353-2.674,2.731,0,1.912-.016,3.824-.011,5.736,0,.422.056.844.089,1.294Zm39.526,65.734c0,3.2-.013,6.406.006,9.608.009,1.426.607,2.027,2.034,2.034q6.128.031,12.256.009c1.5-.005,2.1-.6,2.1-2.115q.023-9.408,0-18.816c0-1.558-.535-2.072-2.107-2.078q-6.061-.025-12.123,0c-1.64.006-2.158.525-2.165,2.151C-240.361,328.832-240.351,331.9-240.351,334.97Zm-62.4.246c0-3.158.01-6.317,0-9.475-.008-1.575-.526-2.111-2.055-2.118q-6.128-.025-12.256-.009c-1.553.006-2.081.532-2.085,2.1q-.023,9.408,0,18.816c0,1.508.6,2.087,2.124,2.093q6.061.025,12.123,0c1.57-.006,2.142-.6,2.149-2.2C-302.74,341.354-302.749,338.285-302.749,335.216Zm19.723-18.428-.337-.4c-1.775.857-3.62,1.6-5.3,2.61-1.293.78-1.283,1.8,0,2.621a15.777,15.777,0,0,0,4.178,1.988,50.613,50.613,0,0,0,23.751.551,23.173,23.173,0,0,0,6.136-2.433c1.528-.813,1.5-1.958,0-2.853-1.645-.981-3.468-1.664-5.484-2.6V320.2h-3.235V315.93a59.219,59.219,0,0,0-15.895-.033c-.226.031-.51.638-.533.991-.069,1.092-.025,2.191-.025,3.295h-3.256Zm-6.475,18.485c-.868,5.014.167,6.743,5.084,8.106a50.343,50.343,0,0,0,21.123.959,37.962,37.962,0,0,0,7.388-2.088,3.905,3.905,0,0,0,2.294-2.164,21.167,21.167,0,0,0,.105-4.849A51.787,51.787,0,0,1-289.5,335.272Zm-.032-9.874c-.582,5.46.229,6.794,5.2,8.138a51.893,51.893,0,0,0,21.144.951A19.852,19.852,0,0,0-255,331.9c.6-.386,1.353-1.035,1.425-1.636a40.441,40.441,0,0,0,.068-4.875A52.12,52.12,0,0,1-289.534,325.4Zm0,19.72c-.635,5.356.147,6.737,4.945,8.06a51.018,51.018,0,0,0,24.788.362,22.841,22.841,0,0,0,5.01-2.074A2.32,2.32,0,0,0-253.57,350c.158-1.645.058-3.316.058-4.872A51.988,51.988,0,0,1-289.53,345.119Z" transform="translate(322.483 -256.141)"/><path class="a" d="M-178.483,287.446v-3.127h3.212v-9.907h6.548v-3.2h9.873v6.466h6.605v6.529h3.183v3.237Zm13.23-13v9.7h3.1v-9.7Zm-3.527,9.74v-6.394h-3.069v6.394Zm10.041-3.088v3.081h3.1V281.1Z" transform="translate(242.576 -264.505)"/><path class="a" d="M-178.448,333.37v-3.153h29.4v3.153Z" transform="translate(242.557 -297.246)"/><path class="a" d="M-156.339,318.639v-3.105h19.564v3.105Z" transform="translate(230.288 -289.099)"/><path class="a" d="M-171.924,315.581v3.1H-178.4v-3.1Z" transform="translate(242.528 -289.125)"/><path class="a" d="M-292.889,330.173h26.151v3.279h-24.4c-1.816,0-1.82,0-1.812-1.782C-292.95,331.193-292.913,330.717-292.889,330.173Z" transform="translate(306.097 -297.222)"/><path class="a" d="M-297.7,310.463h-9.654v-9.77h9.654Zm-6.394-6.5v3.148h3.062V303.96Z" transform="translate(314.089 -280.863)"/><path class="a" d="M-278.025,318.638v-3.094h19.573v3.094Z" transform="translate(297.813 -289.104)"/><path class="a" d="M-258.349,300.744v3.1h-19.562v-3.1Z" transform="translate(297.75 -280.891)"/><path class="a" d="M-304.327,333.4h-3.043v-3.213h3.043Z" transform="translate(314.097 -297.231)"/><path class="a" d="M-289.549,271.214v3.072h-3.193v-3.072Z" transform="translate(305.98 -264.505)"/><path class="a" d="M-304.282,271.23v3.081h-3.106V271.23Z" transform="translate(314.107 -264.514)"/><path class="a" d="M-277.934,271.137h3.072v3.11h-3.072Z" transform="translate(297.762 -264.462)"/><path class="a" d="M-120.723,430.019v3.165H-130.4v-3.165Z" transform="translate(215.897 -352.627)"/><path class="a" d="M-120.767,415.305V418.4h-9.69v-3.091Z" transform="translate(215.926 -344.462)"/><path class="a" d="M-120.761,444.767v3.14h-9.689v-3.14Z" transform="translate(215.922 -360.811)"/><path class="a" d="M-297.714,433.218h-9.667v-3.153h9.667Z" transform="translate(314.103 -352.653)"/><path class="a" d="M-297.677,415.307V418.4h-9.68v-3.091Z" transform="translate(314.09 -344.464)"/><path class="a" d="M-297.684,444.768v3.14h-9.7v-3.14Z" transform="translate(314.103 -360.812)"/></g></svg>