<svg xmlns="http://www.w3.org/2000/svg" width="78.972" height="78.972" viewBox="0 0 78.972 78.972"><defs><style>.a{fill:#292662;}</style></defs><g transform="translate(-1 -1)"><path class="a" d="M35,57.927H57.927V35H35Zm2.547-20.38H55.38V55.38H37.547Z" transform="translate(9.307 9.307)"/><path class="a" d="M69.782,39.212V31.57H62.14v7.642H59.592V31.57H54.8a10.114,10.114,0,0,0-1.253-14.011h9.87a1.276,1.276,0,0,1,1.274,1.274v2.782a3.821,3.821,0,1,0,2.547,0V18.832a3.826,3.826,0,0,0-3.821-3.821H49.789a8.841,8.841,0,0,0-1.811-2.547H73.6a1.276,1.276,0,0,1,1.274,1.274v2.782a3.821,3.821,0,1,0,2.547,0V13.737A3.826,3.826,0,0,0,73.6,9.916H41.76v.018c-.1,0-.19-.017-.288-.013a11.46,11.46,0,0,0-21.59-2.244A8.9,8.9,0,0,0,8.709,15.328,10.173,10.173,0,0,0,6.095,34.013v29.4a3.826,3.826,0,0,0,3.821,3.821h6.6a3.821,3.821,0,1,0,0-2.547h-6.6a1.276,1.276,0,0,1-1.274-1.274V35.056a10.129,10.129,0,0,0,2.547.335V53.223a3.826,3.826,0,0,0,3.821,3.821h4.056a3.821,3.821,0,1,0,0-2.547H15.011a1.276,1.276,0,0,1-1.274-1.274V35.391h2.547v7.642a3.826,3.826,0,0,0,3.821,3.821h1.508a3.821,3.821,0,1,0,0-2.547H20.106a1.276,1.276,0,0,1-1.274-1.274V35.391H41.76v3.821a2.55,2.55,0,0,0-2.547,2.547H31.57V49.4h7.642V51.95H31.57v7.642h7.642V62.14H31.57v7.642h7.642a2.55,2.55,0,0,0,2.547,2.547v7.642H49.4V72.329H51.95v7.642h7.642V72.329H62.14v7.642h7.642V72.329a2.55,2.55,0,0,0,2.547-2.547h7.642V62.14H72.329V59.592h7.642V51.95H72.329V49.4h7.642V41.76H72.329A2.55,2.55,0,0,0,69.782,39.212ZM65.961,26.475A1.274,1.274,0,1,1,67.235,25.2,1.276,1.276,0,0,1,65.961,26.475Zm10.19-5.095a1.274,1.274,0,1,1,1.274-1.274A1.276,1.276,0,0,1,76.151,21.38ZM20.106,64.687a1.274,1.274,0,1,1-1.274,1.274A1.276,1.276,0,0,1,20.106,64.687ZM22.654,54.5a1.274,1.274,0,1,1-1.274,1.274A1.276,1.276,0,0,1,22.654,54.5ZM25.2,44.307a1.274,1.274,0,1,1-1.274,1.274A1.276,1.276,0,0,1,25.2,44.307Zm8.916,2.547V44.307h5.095v2.547Zm0,10.19V54.5h5.095v2.547Zm0,10.19V64.687h5.095v2.547Zm30.57-33.117h2.547v5.095H64.687Zm-7.642,5.095H54.5V34.117h2.547Zm-5.095-5.2v5.2H49.4V35.056A10.142,10.142,0,0,0,51.95,34.013ZM3.547,25.2A7.67,7.67,0,0,1,10.1,17.647l1.089-.257v-1.1a6.376,6.376,0,0,1,6.369-6.369,6.305,6.305,0,0,1,2.549.535l1.284.562.438-1.331a8.911,8.911,0,0,1,17.322,1.776l.152,1.35,1.337-.238a6.326,6.326,0,0,1,7.2,4.379l.211.681.692.176a7.637,7.637,0,0,1-1.893,15.038H11.19A7.65,7.65,0,0,1,3.547,25.2Zm40.76,10.19h2.547v3.821H44.307Zm2.547,42.033H44.307V72.329h2.547Zm10.19,0H54.5V72.329h2.547Zm10.19,0H64.687V72.329h2.547ZM41.76,69.782V41.76H69.782V69.782Zm35.665-5.095v2.547H72.329V64.687Zm0-10.19v2.547H72.329V54.5Zm0-10.19v2.547H72.329V44.307Z" transform="translate(0 0)"/><path class="a" d="M16.852,22.464h5.016l1.351,5.4,2.471-.618L21.629,11H17.092L13.03,27.249l2.471.618Zm2.787-8.916,1.592,6.369H17.489l1.592-6.369Z" transform="translate(3.293 2.737)"/><path class="a" d="M32.642,25.011H30.095V13.547h2.547V11H25v2.547h2.547V25.011H25v2.547h7.642Z" transform="translate(6.57 2.737)"/></g></svg>