<svg xmlns="http://www.w3.org/2000/svg" viewBox="0 0 1077.37 429.02"><defs><style>.cls-1{fill:#292662;}.cls-2{fill:#2d2c73;}.cls-3{fill:#f0ae1d;}.cls-4{fill:#c9203f;}.cls-5{fill:#23275a;}.cls-6{fill:none;}</style></defs><g id="Layer_2" data-name="Layer 2"><g id="Layer_1-2" data-name="Layer 1"><path class="cls-1" d="M85.09,253.32V168.24h26c19,0,30.77,5.92,30.77,23.42v38.11c0,17.51-11.72,23.55-30.77,23.55Zm51-61c0-16.22-11.33-18.54-25-18.54H90.88v73.89h20.21c13.65,0,25-2.57,25-18.41Z"/><path class="cls-1" d="M208,225.13H172.88L163,253.32a10.94,10.94,0,0,1-5.79,0l30.38-85.08a11.93,11.93,0,0,1,6.05,0L224,253.32a11.93,11.93,0,0,1-6.05,0Zm-17.64-49.69-15.7,44.67h31.53Z"/><path class="cls-1" d="M248.06,173.51H221.8a9.27,9.27,0,0,1,0-5.27H280a9.27,9.27,0,0,1,0,5.27H253.86v79.81a11,11,0,0,1-5.8,0Z"/><path class="cls-1" d="M328.65,225.13H293.51l-9.92,28.19a10.94,10.94,0,0,1-5.79,0l30.38-85.08a11.93,11.93,0,0,1,6.05,0l30.38,85.08a11.93,11.93,0,0,1-6.05,0ZM311,175.44l-15.7,44.67h31.54Z"/><path class="cls-1" d="M549.46,189.73c0-17.76,11.45-23.42,29.86-23.42,7.6,0,15.32.38,22.4,2.05a8.3,8.3,0,0,1,0,5,131,131,0,0,0-22.14-1.68c-13.26,0-24.33,2.32-24.33,18.54V230.8c0,16,11.07,18.41,24.33,18.41,9.91,0,15.83-1.81,22.53-3.87a12.09,12.09,0,0,1,1.16,5,66,66,0,0,1-23.95,4.51c-18.41,0-29.86-5.66-29.86-23.56Z"/><path class="cls-1" d="M675.35,212.13H629.66v41.19a11,11,0,0,1-5.8,0V168.24a11,11,0,0,1,5.8,0v38.61h45.69V168.24a11,11,0,0,1,5.8,0v85.08a11,11,0,0,1-5.8,0Z"/><path class="cls-1" d="M750.79,225.13H715.65l-9.91,28.19a11,11,0,0,1-5.8,0l30.38-85.08a11.93,11.93,0,0,1,6,0l30.38,85.08a11.93,11.93,0,0,1-6,0Zm-17.64-49.69-15.7,44.67H749Z"/><path class="cls-1" d="M791.34,177v76.33a10.94,10.94,0,0,1-5.79,0V168.24a15.68,15.68,0,0,1,7,0l46.21,77.62V168.24a10.94,10.94,0,0,1,5.79,0v85.08a19.29,19.29,0,0,1-7.72,0Z"/><path class="cls-1" d="M918.14,216.12H897a8.42,8.42,0,0,1,0-5h26.65v39.26A70.06,70.06,0,0,1,899,254.87c-18.79,0-30.5-5.66-30.5-23.56V189.73c0-17.76,11.71-23.42,30.5-23.42,7.86,0,15.71.38,23,2.05a8.46,8.46,0,0,1,0,5,139.09,139.09,0,0,0-22.79-1.68c-13.64,0-25,2.32-25,18.54V230.8c0,16,11.33,18.41,25,18.41a63.14,63.14,0,0,0,18.93-2.58Z"/><path class="cls-1" d="M947.61,253.32V168.24H991.9a9.27,9.27,0,0,1,0,5.27H953.41v33.73h37.2a9.3,9.3,0,0,1,0,5.28h-37.2v35.4H991.9a9.72,9.72,0,0,1,0,5.4Z"/><path class="cls-2" d="M357.28,102.45h36.64c2.14,0,4.51,1.8,7,5.25l67.65,108.83a4.89,4.89,0,0,0,8.28-.12l58.79-92.87a5.76,5.76,0,0,0,.76-2.47,5,5,0,0,0-2-4.09,6.8,6.8,0,0,0-4.31-1.45H496c-3.68,0-6.82,2.24-9.26,6.57l-22.43,34a4.76,4.76,0,0,1,2.1,2l22.79-34.58c2-3.49,4.2-5.19,6.8-5.19h34.06a3.93,3.93,0,0,1,2.53.83,2.15,2.15,0,0,1,.9,1.83,3.67,3.67,0,0,1-.39,1.06L474.39,214.9a2,2,0,0,1-1.69,1A2.07,2.07,0,0,1,471,215L403.31,106.1c-3.16-4.39-6.23-6.53-9.39-6.53H357.28a6.58,6.58,0,0,0-4.53,1.66,5.14,5.14,0,0,0-1.93,3.89,6.09,6.09,0,0,0,.83,2.59l70,111.8L354.37,333.84a6.18,6.18,0,0,0-.76,2.78c0,2.07.83,5.54,6.45,5.54H394c3.81,0,7-2.36,9.29-6.94l55.46-92.82a15.33,15.33,0,0,1,26.06-.12l46.13,74.17a3,3,0,0,1,.36,1.64c0,.83,0,2.36-3.57,2.36H490.9c-2,0-4.37-1.94-6.83-5.55l-18.9-30.81-2.45,1.5,18.93,30.88c3.15,4.62,6.18,6.86,9.25,6.86h36.8c5.62,0,6.45-3.28,6.45-5.24a5.72,5.72,0,0,0-.82-3.19l-46.11-74.15a18.12,18.12,0,0,0-17.14-8.47,18.32,18.32,0,0,0-13.82,8.62l-55.51,92.93c-1.88,3.67-4.1,5.45-6.78,5.45H360.06c-3.14,0-3.57-1.28-3.57-2.66a3.34,3.34,0,0,1,.41-1.4l68.16-115.76L354.16,106.3a3.85,3.85,0,0,1-.46-1.18,2.39,2.39,0,0,1,1-1.74A3.76,3.76,0,0,1,357.28,102.45Z"/><circle class="cls-3" cx="355.57" cy="337.34" r="8.19"/><circle class="cls-4" cx="396.8" cy="340" r="5.52"/><circle class="cls-4" cx="532.49" cy="318.97" r="7.89"/><path class="cls-3" d="M466.53,283.26a5.74,5.74,0,1,0,5.74,5.74A5.75,5.75,0,0,0,466.53,283.26Z"/><circle class="cls-4" cx="463.84" cy="159.03" r="4.73"/><path class="cls-2" d="M463.84,154.3a4.73,4.73,0,1,1-4.73,4.73,4.73,4.73,0,0,1,4.73-4.73m0-2.77a7.5,7.5,0,1,0,7.5,7.5,7.51,7.51,0,0,0-7.5-7.5Z"/><circle class="cls-4" cx="472.27" cy="217.34" r="5.83"/><path class="cls-5" d="M472.27,211.51a5.83,5.83,0,1,1-5.83,5.83,5.83,5.83,0,0,1,5.83-5.83m0-2.77a8.6,8.6,0,1,0,8.6,8.6,8.61,8.61,0,0,0-8.6-8.6Z"/><circle class="cls-4" cx="423.07" cy="219.63" r="8.12"/><path class="cls-5" d="M423.07,211.51a8.12,8.12,0,1,1-8.12,8.12,8.13,8.13,0,0,1,8.12-8.12m0-2.77A10.89,10.89,0,1,0,434,219.63a10.9,10.9,0,0,0-10.89-10.89Z"/><circle class="cls-4" cx="492.81" cy="118.49" r="6.93"/><path class="cls-2" d="M492.81,111.56a6.93,6.93,0,1,1-6.93,6.93,6.93,6.93,0,0,1,6.93-6.93m0-2.77a9.7,9.7,0,1,0,9.69,9.7,9.7,9.7,0,0,0-9.69-9.7Z"/><circle class="cls-3" cx="533.36" cy="119.75" r="8.19"/><path class="cls-2" d="M533.36,111.56a8.19,8.19,0,1,1-8.19,8.19,8.19,8.19,0,0,1,8.19-8.19m0-2.77a11,11,0,1,0,11,11,11,11,0,0,0-11-11Z"/><circle class="cls-3" cx="396.67" cy="102.98" r="10.73"/><path class="cls-2" d="M396.67,92.25A10.74,10.74,0,1,1,385.94,103a10.74,10.74,0,0,1,10.73-10.73m0-2.76A13.5,13.5,0,1,0,410.16,103a13.51,13.51,0,0,0-13.49-13.49Z"/><path class="cls-2" d="M355.57,329.14a8.2,8.2,0,1,1-8.19,8.2,8.2,8.2,0,0,1,8.19-8.2m0-2.76a11,11,0,1,0,11,11,11,11,0,0,0-11-11Z"/><path class="cls-2" d="M396.8,334.48a5.53,5.53,0,1,1-5.52,5.52,5.52,5.52,0,0,1,5.52-5.52m0-2.77a8.29,8.29,0,1,0,8.29,8.29,8.3,8.3,0,0,0-8.29-8.29Z"/><path class="cls-2" d="M532.49,311.08A7.89,7.89,0,1,1,524.6,319a7.89,7.89,0,0,1,7.89-7.89m0-2.77A10.66,10.66,0,1,0,543.15,319a10.67,10.67,0,0,0-10.66-10.66Z"/><path class="cls-2" d="M466.53,283.26a5.74,5.74,0,1,1-5.74,5.74,5.74,5.74,0,0,1,5.74-5.74m0-2.77A8.51,8.51,0,1,0,475,289a8.51,8.51,0,0,0-8.51-8.51Z"/><circle class="cls-3" cx="456.14" cy="272.32" r="5.16"/><path class="cls-2" d="M456.14,267.15a5.17,5.17,0,1,1-5.16,5.17,5.16,5.16,0,0,1,5.16-5.17m0-2.76a7.93,7.93,0,1,0,7.93,7.93,7.94,7.94,0,0,0-7.93-7.93Z"/><rect class="cls-6" width="1077.37" height="429.02"/></g></g></svg>